<svg width="1599" height="1121" viewBox="0 0 1599 1121" fill="none" xmlns="http://www.w3.org/2000/svg">
<rect width="1599" height="1121" fill="#0F203A"/>
<path d="M156.25 257V159.875H117.05V133.625H227.65V159.875H188.45V257H156.25ZM261.697 257V133.625H321.022C335.022 133.625 345.814 137.067 353.397 143.95C361.097 150.717 364.947 160.167 364.947 172.3C364.947 181.517 362.614 189.275 357.947 195.575C353.397 201.758 346.747 206.075 337.997 208.525C344.53 210.275 349.78 214.767 353.747 222L372.997 257H337.647L316.297 217.8C314.897 215.35 313.089 213.6 310.872 212.55C308.772 211.5 306.322 210.975 303.522 210.975H293.897V257H261.697ZM293.897 188.225H315.247C327.964 188.225 334.322 183.208 334.322 173.175C334.322 163.258 327.964 158.3 315.247 158.3H293.897V188.225ZM461.732 258.925C443.765 258.925 429.998 254.375 420.432 245.275C410.982 236.175 406.257 222.583 406.257 204.5V133.625H438.457V204.85C438.457 213.833 440.44 220.6 444.407 225.15C448.373 229.7 454.148 231.975 461.732 231.975C469.198 231.975 474.915 229.7 478.882 225.15C482.848 220.6 484.832 213.833 484.832 204.85V133.625H516.507V204.5C516.507 222.583 511.84 236.175 502.507 245.275C493.29 254.375 479.698 258.925 461.732 258.925ZM605.765 258.925C596.082 258.925 586.807 257.758 577.94 255.425C569.073 252.975 561.782 249.767 556.065 245.8L564.99 220.775C570.357 224.392 576.657 227.25 583.89 229.35C591.123 231.45 598.415 232.5 605.765 232.5C613.465 232.5 618.832 231.508 621.865 229.525C625.015 227.425 626.59 224.858 626.59 221.825C626.59 219.142 625.482 216.983 623.265 215.35C621.165 213.717 617.373 212.317 611.89 211.15L591.415 206.775C569.248 201.992 558.165 190.383 558.165 171.95C558.165 163.9 560.323 156.842 564.64 150.775C569.073 144.708 575.198 140.042 583.015 136.775C590.832 133.392 599.932 131.7 610.315 131.7C618.832 131.7 626.882 132.925 634.465 135.375C642.165 137.708 648.407 140.917 653.19 145L644.265 168.45C639.832 165.183 634.698 162.675 628.865 160.925C623.032 159.058 616.732 158.125 609.965 158.125C603.432 158.125 598.415 159.292 594.915 161.625C591.415 163.842 589.665 166.758 589.665 170.375C589.665 172.942 590.715 175.042 592.815 176.675C594.915 178.308 598.648 179.708 604.015 180.875L624.315 185.25C646.832 190.033 658.09 201.35 658.09 219.2C658.09 227.25 655.932 234.25 651.615 240.2C647.298 246.15 641.232 250.758 633.415 254.025C625.598 257.292 616.382 258.925 605.765 258.925ZM722.266 257V159.875H683.066V133.625H793.666V159.875H754.466V257H722.266ZM127.2 496V372.625H186.525C200.525 372.625 211.317 376.242 218.9 383.475C226.6 390.592 230.45 400.45 230.45 413.05C230.45 425.65 226.6 435.567 218.9 442.8C211.317 449.917 200.525 453.475 186.525 453.475H159.4V496H127.2ZM159.4 428.8H180.925C193.525 428.8 199.825 423.55 199.825 413.05C199.825 402.55 193.525 397.3 180.925 397.3H159.4V428.8ZM267.337 496V372.625H326.662C340.662 372.625 351.453 376.067 359.037 382.95C366.737 389.717 370.587 399.167 370.587 411.3C370.587 420.517 368.253 428.275 363.587 434.575C359.037 440.758 352.387 445.075 343.637 447.525C350.17 449.275 355.42 453.767 359.387 461L378.637 496H343.287L321.937 456.8C320.537 454.35 318.728 452.6 316.512 451.55C314.412 450.5 311.962 449.975 309.162 449.975H299.537V496H267.337ZM299.537 427.225H320.887C333.603 427.225 339.962 422.208 339.962 412.175C339.962 402.258 333.603 397.3 320.887 397.3H299.537V427.225ZM412.771 496V372.625H499.921V397.475H443.571V420.925H495.896V445.775H443.571V471.15H499.921V496H412.771ZM604.783 497.925C591.133 497.925 579.408 495.3 569.608 490.05C559.808 484.8 552.283 477.392 547.033 467.825C541.9 458.258 539.333 447.058 539.333 434.225C539.333 421.392 541.9 410.25 547.033 400.8C552.283 391.233 559.808 383.825 569.608 378.575C579.408 373.325 591.133 370.7 604.783 370.7C612.95 370.7 620.825 371.983 628.408 374.55C635.992 377 642.117 380.267 646.783 384.35L637.158 409.725C632.025 405.992 626.892 403.25 621.758 401.5C616.625 399.633 611.375 398.7 606.008 398.7C595.158 398.7 586.992 401.792 581.508 407.975C576.025 414.042 573.283 422.792 573.283 434.225C573.283 445.775 576.025 454.642 581.508 460.825C586.992 466.892 595.158 469.925 606.008 469.925C611.375 469.925 616.625 469.05 621.758 467.3C626.892 465.433 632.025 462.633 637.158 458.9L646.783 484.275C642.117 488.358 635.992 491.683 628.408 494.25C620.825 496.7 612.95 497.925 604.783 497.925ZM684.5 496V372.625H716.7V496H684.5ZM806.741 497.925C797.058 497.925 787.783 496.758 778.916 494.425C770.05 491.975 762.758 488.767 757.041 484.8L765.966 459.775C771.333 463.392 777.633 466.25 784.866 468.35C792.1 470.45 799.391 471.5 806.741 471.5C814.441 471.5 819.808 470.508 822.841 468.525C825.991 466.425 827.566 463.858 827.566 460.825C827.566 458.142 826.458 455.983 824.241 454.35C822.141 452.717 818.35 451.317 812.866 450.15L792.391 445.775C770.225 440.992 759.141 429.383 759.141 410.95C759.141 402.9 761.3 395.842 765.616 389.775C770.05 383.708 776.175 379.042 783.991 375.775C791.808 372.392 800.908 370.7 811.291 370.7C819.808 370.7 827.858 371.925 835.441 374.375C843.141 376.708 849.383 379.917 854.166 384L845.241 407.45C840.808 404.183 835.675 401.675 829.841 399.925C824.008 398.058 817.708 397.125 810.941 397.125C804.408 397.125 799.391 398.292 795.891 400.625C792.391 402.842 790.641 405.758 790.641 409.375C790.641 411.942 791.691 414.042 793.791 415.675C795.891 417.308 799.625 418.708 804.991 419.875L825.291 424.25C847.808 429.033 859.066 440.35 859.066 458.2C859.066 466.25 856.908 473.25 852.591 479.2C848.275 485.15 842.208 489.758 834.391 493.025C826.575 496.292 817.358 497.925 806.741 497.925ZM896.756 496V372.625H928.956V496H896.756ZM1032.65 497.925C1020.16 497.925 1009.2 495.3 999.747 490.05C990.414 484.683 983.122 477.217 977.872 467.65C972.622 458.083 969.997 446.942 969.997 434.225C969.997 421.392 972.564 410.25 977.697 400.8C982.947 391.233 990.297 383.825 999.747 378.575C1009.2 373.325 1020.16 370.7 1032.65 370.7C1045.13 370.7 1056.04 373.325 1065.37 378.575C1074.82 383.825 1082.17 391.233 1087.42 400.8C1092.67 410.25 1095.3 421.392 1095.3 434.225C1095.3 446.942 1092.67 458.083 1087.42 467.65C1082.17 477.217 1074.82 484.683 1065.37 490.05C1056.04 495.3 1045.13 497.925 1032.65 497.925ZM1032.65 470.975C1041.75 470.975 1048.86 467.767 1054 461.35C1059.25 454.817 1061.87 445.775 1061.87 434.225C1061.87 422.675 1059.31 413.692 1054.17 407.275C1049.04 400.858 1041.86 397.65 1032.65 397.65C1023.43 397.65 1016.26 400.858 1011.12 407.275C1005.99 413.692 1003.42 422.675 1003.42 434.225C1003.42 445.775 1005.99 454.817 1011.12 461.35C1016.26 467.767 1023.43 470.975 1032.65 470.975ZM1136.18 496V372.625H1159.81L1216.51 443.325V372.625H1246.26V496H1222.81L1166.11 425.3V496H1136.18ZM127.2 735V611.625H214.35V636.475H158V659.925H210.325V684.775H158V710.15H214.35V735H127.2ZM256.57 735V611.625H280.195L336.895 682.325V611.625H366.645V735H343.195L286.495 664.3V735H256.57ZM474.062 736.925C459.946 736.925 447.929 734.3 438.012 729.05C428.212 723.8 420.746 716.45 415.612 707C410.479 697.55 407.912 686.525 407.912 673.925C407.912 660.858 410.596 649.542 415.962 639.975C421.446 630.292 429.262 622.825 439.412 617.575C449.562 612.325 461.812 609.7 476.162 609.7C484.796 609.7 493.021 610.867 500.837 613.2C508.654 615.417 515.012 618.45 519.912 622.3L510.112 647.15C504.746 643.65 499.321 641.142 493.837 639.625C488.354 637.992 482.521 637.175 476.337 637.175C464.554 637.175 455.746 640.325 449.912 646.625C444.196 652.925 441.337 662.025 441.337 673.925C441.337 685.825 444.254 694.808 450.087 700.875C455.921 706.942 464.554 709.975 475.987 709.975C481.354 709.975 487.362 709.158 494.012 707.525V688.1H469.337V665.525H520.262V727.475C513.729 730.508 506.437 732.842 498.387 734.475C490.337 736.108 482.229 736.925 474.062 736.925ZM563.675 735V611.625H595.875V735H563.675ZM640.066 735V611.625H663.691L720.391 682.325V611.625H750.141V735H726.691L669.991 664.3V735H640.066ZM794.558 735V611.625H881.708V636.475H825.358V659.925H877.683V684.775H825.358V710.15H881.708V735H794.558ZM923.929 735V611.625H1011.08V636.475H954.729V659.925H1007.05V684.775H954.729V710.15H1011.08V735H923.929ZM1053.3 735V611.625H1112.62C1126.62 611.625 1137.42 615.067 1145 621.95C1152.7 628.717 1156.55 638.167 1156.55 650.3C1156.55 659.517 1154.22 667.275 1149.55 673.575C1145 679.758 1138.35 684.075 1129.6 686.525C1136.13 688.275 1141.38 692.767 1145.35 700L1164.6 735H1129.25L1107.9 695.8C1106.5 693.35 1104.69 691.6 1102.47 690.55C1100.37 689.5 1097.92 688.975 1095.12 688.975H1085.5V735H1053.3ZM1085.5 666.225H1106.85C1119.57 666.225 1125.92 661.208 1125.92 651.175C1125.92 641.258 1119.57 636.3 1106.85 636.3H1085.5V666.225ZM1198.73 735V611.625H1285.88V636.475H1229.53V659.925H1281.86V684.775H1229.53V710.15H1285.88V735H1198.73ZM1328.1 735V611.625H1379.2C1400.55 611.625 1417.12 616.992 1428.9 627.725C1440.69 638.458 1446.58 653.625 1446.58 673.225C1446.58 692.825 1440.69 708.05 1428.9 718.9C1417.12 729.633 1400.55 735 1379.2 735H1328.1ZM1360.3 708.925H1377.1C1389.35 708.925 1398.39 706.008 1404.23 700.175C1410.18 694.225 1413.15 685.242 1413.15 673.225C1413.15 661.208 1410.18 652.283 1404.23 646.45C1398.28 640.617 1389.24 637.7 1377.1 637.7H1360.3V708.925ZM127.2 974V850.625H186.525C200.525 850.625 211.317 854.242 218.9 861.475C226.6 868.592 230.45 878.45 230.45 891.05C230.45 903.65 226.6 913.567 218.9 920.8C211.317 927.917 200.525 931.475 186.525 931.475H159.4V974H127.2ZM159.4 906.8H180.925C193.525 906.8 199.825 901.55 199.825 891.05C199.825 880.55 193.525 875.3 180.925 875.3H159.4V906.8ZM267.337 974V850.625H326.662C340.662 850.625 351.453 854.067 359.037 860.95C366.737 867.717 370.587 877.167 370.587 889.3C370.587 898.517 368.253 906.275 363.587 912.575C359.037 918.758 352.387 923.075 343.637 925.525C350.17 927.275 355.42 931.767 359.387 939L378.637 974H343.287L321.937 934.8C320.537 932.35 318.728 930.6 316.512 929.55C314.412 928.5 311.962 927.975 309.162 927.975H299.537V974H267.337ZM299.537 905.225H320.887C333.603 905.225 339.962 900.208 339.962 890.175C339.962 880.258 333.603 875.3 320.887 875.3H299.537V905.225ZM471.417 975.925C458.933 975.925 447.967 973.3 438.517 968.05C429.183 962.683 421.892 955.217 416.642 945.65C411.392 936.083 408.767 924.942 408.767 912.225C408.767 899.392 411.333 888.25 416.467 878.8C421.717 869.233 429.067 861.825 438.517 856.575C447.967 851.325 458.933 848.7 471.417 848.7C483.9 848.7 494.808 851.325 504.142 856.575C513.592 861.825 520.942 869.233 526.192 878.8C531.442 888.25 534.067 899.392 534.067 912.225C534.067 924.942 531.442 936.083 526.192 945.65C520.942 955.217 513.592 962.683 504.142 968.05C494.808 973.3 483.9 975.925 471.417 975.925ZM471.417 948.975C480.517 948.975 487.633 945.767 492.767 939.35C498.017 932.817 500.642 923.775 500.642 912.225C500.642 900.675 498.075 891.692 492.942 885.275C487.808 878.858 480.633 875.65 471.417 875.65C462.2 875.65 455.025 878.858 449.892 885.275C444.758 891.692 442.192 900.675 442.192 912.225C442.192 923.775 444.758 932.817 449.892 939.35C455.025 945.767 462.2 948.975 471.417 948.975ZM574.954 974V850.625H626.054C647.404 850.625 663.971 855.992 675.754 866.725C687.537 877.458 693.429 892.625 693.429 912.225C693.429 931.825 687.537 947.05 675.754 957.9C663.971 968.633 647.404 974 626.054 974H574.954ZM607.154 947.925H623.954C636.204 947.925 645.246 945.008 651.079 939.175C657.029 933.225 660.004 924.242 660.004 912.225C660.004 900.208 657.029 891.283 651.079 885.45C645.129 879.617 636.087 876.7 623.954 876.7H607.154V947.925ZM789.002 975.925C771.035 975.925 757.269 971.375 747.702 962.275C738.252 953.175 733.527 939.583 733.527 921.5V850.625H765.727V921.85C765.727 930.833 767.71 937.6 771.677 942.15C775.644 946.7 781.419 948.975 789.002 948.975C796.469 948.975 802.185 946.7 806.152 942.15C810.119 937.6 812.102 930.833 812.102 921.85V850.625H843.777V921.5C843.777 939.583 839.11 953.175 829.777 962.275C820.56 971.375 806.969 975.925 789.002 975.925ZM949.485 975.925C935.835 975.925 924.11 973.3 914.31 968.05C904.51 962.8 896.985 955.392 891.735 945.825C886.602 936.258 884.035 925.058 884.035 912.225C884.035 899.392 886.602 888.25 891.735 878.8C896.985 869.233 904.51 861.825 914.31 856.575C924.11 851.325 935.835 848.7 949.485 848.7C957.652 848.7 965.527 849.983 973.11 852.55C980.694 855 986.819 858.267 991.485 862.35L981.86 887.725C976.727 883.992 971.594 881.25 966.46 879.5C961.327 877.633 956.077 876.7 950.71 876.7C939.86 876.7 931.694 879.792 926.21 885.975C920.727 892.042 917.985 900.792 917.985 912.225C917.985 923.775 920.727 932.642 926.21 938.825C931.694 944.892 939.86 947.925 950.71 947.925C956.077 947.925 961.327 947.05 966.46 945.3C971.594 943.433 976.727 940.633 981.86 936.9L991.485 962.275C986.819 966.358 980.694 969.683 973.11 972.25C965.527 974.7 957.652 975.925 949.485 975.925ZM1056.54 974V876.875H1017.34V850.625H1127.94V876.875H1088.74V974H1056.54ZM1204.08 975.925C1194.4 975.925 1185.12 974.758 1176.26 972.425C1167.39 969.975 1160.1 966.767 1154.38 962.8L1163.31 937.775C1168.67 941.392 1174.97 944.25 1182.21 946.35C1189.44 948.45 1196.73 949.5 1204.08 949.5C1211.78 949.5 1217.15 948.508 1220.18 946.525C1223.33 944.425 1224.91 941.858 1224.91 938.825C1224.91 936.142 1223.8 933.983 1221.58 932.35C1219.48 930.717 1215.69 929.317 1210.21 928.15L1189.73 923.775C1167.56 918.992 1156.48 907.383 1156.48 888.95C1156.48 880.9 1158.64 873.842 1162.96 867.775C1167.39 861.708 1173.51 857.042 1181.33 853.775C1189.15 850.392 1198.25 848.7 1208.63 848.7C1217.15 848.7 1225.2 849.925 1232.78 852.375C1240.48 854.708 1246.72 857.917 1251.51 862L1242.58 885.45C1238.15 882.183 1233.01 879.675 1227.18 877.925C1221.35 876.058 1215.05 875.125 1208.28 875.125C1201.75 875.125 1196.73 876.292 1193.23 878.625C1189.73 880.842 1187.98 883.758 1187.98 887.375C1187.98 889.942 1189.03 892.042 1191.13 893.675C1193.23 895.308 1196.96 896.708 1202.33 897.875L1222.63 902.25C1245.15 907.033 1256.41 918.35 1256.41 936.2C1256.41 944.25 1254.25 951.25 1249.93 957.2C1245.61 963.15 1239.55 967.758 1231.73 971.025C1223.91 974.292 1214.7 975.925 1204.08 975.925Z" fill="white"/>
</svg>
