<svg width="3322" height="1312" viewBox="0 0 3322 1312" fill="none" xmlns="http://www.w3.org/2000/svg">
<path d="M908.803 183.069C902.943 185.999 900.014 188.929 900.014 191.858C879.872 187.83 865.956 185.999 858.998 185.999C851.674 187.464 842.885 212 832.631 259.241C800.771 259.241 767.445 266.199 733.021 279.749C642.934 285.975 596.059 294.031 592.396 303.187V306.116C597.157 333.582 603.017 347.132 609.975 347.132C619.13 375.696 624.989 391.443 627.553 394.007V402.796L630.482 408.655H627.553L630.482 414.515C701.894 414.515 755.36 406.824 791.615 391.077C791.615 405.359 785.756 428.797 774.037 461.39C727.162 579.676 700.795 649.988 694.936 672.327H700.795V669.397C734.853 593.226 758.29 535.73 771.107 496.546H774.037V499.476C717.274 649.256 686.146 737.146 680.287 763.147V766.077H686.146L782.826 517.054C804.433 437.952 819.813 395.105 829.701 388.147C806.264 455.164 790.517 503.87 782.826 534.632C763.417 580.408 750.6 615.564 744.74 640.101H747.67C751.698 640.101 753.529 637.171 753.529 631.312H756.459V634.241L750.6 648.89L753.529 663.538H759.389C759.389 658.411 770.009 630.945 791.615 581.507H794.545V584.437C792.714 587.732 791.615 591.761 791.615 596.155C737.05 738.611 709.584 818.445 709.584 836.39L712.514 842.249C708.485 862.024 706.654 873.743 706.654 877.405H712.514L759.389 736.78H762.318V739.71C762.318 744.471 753.529 771.937 735.951 821.741H738.881C745.106 819.91 752.797 802.332 762.318 769.007H765.248V771.937L750.6 824.671H756.459L776.967 769.007H779.896V774.866C774.037 788.782 771.107 796.473 771.107 798.304H774.037C781.361 793.543 791.249 769.007 803.334 725.062V722.132H797.475C797.475 725.062 793.446 738.611 785.756 763.147H782.826V757.288C794.545 730.921 800.404 711.512 800.404 698.694L806.264 701.624C806.264 703.455 805.165 706.385 803.334 710.413V713.343H806.264C810.658 713.343 814.687 704.554 817.982 686.976C884.267 514.856 917.592 425.867 917.592 420.374C923.451 381.189 938.1 361.78 961.537 361.78V355.921H938.1V350.062C1027.82 339.441 1072.87 330.652 1072.87 323.694V320.765C1011.71 324.793 970.692 330.652 949.818 338.343H946.889L955.678 323.694H952.748C952.748 319.3 953.847 315.271 955.678 311.976C967.396 308.68 973.256 305.75 973.256 303.187V300.257C971.425 300.257 968.495 301.355 964.467 303.187H958.607C958.607 298.792 963.368 295.862 973.256 294.397L1052.36 276.819L1049.43 270.96C1061.15 270.96 1076.89 268.03 1096.3 262.171V256.312H1087.51C1082.75 256.312 1073.96 254.48 1061.15 250.452C1061.15 258.143 1056.39 262.171 1046.5 262.171V259.241C1044.67 259.241 1041.74 260.34 1037.71 262.171C1028.92 258.143 1020.13 256.312 1011.34 256.312V253.382L1052.36 241.663L1049.43 235.804C1003.65 241.663 979.115 246.424 976.186 250.452C976.186 248.621 974.354 247.522 970.326 247.522V244.593C991.566 240.564 1005.12 238.733 1011.34 238.733V232.874H1005.48C991.566 232.874 980.946 234.705 973.256 238.733C973.256 236.902 972.157 235.804 970.326 235.804L976.186 197.718L973.256 191.858H976.186C976.186 187.83 970.326 184.9 958.607 183.069C939.198 183.069 924.55 184.9 914.662 188.929C914.662 185.633 912.831 183.436 908.803 183.069ZM1055.29 241.663H1067.01V235.804H1055.29V241.663ZM984.975 270.96V273.89H976.186V270.96H984.975ZM1025.99 270.96V273.89H1020.13V270.96H1025.99ZM803.334 273.89V276.819H797.475V273.89H803.334ZM820.912 288.538V291.468H812.123V288.538H820.912ZM782.826 294.397V297.327H774.037V294.397H782.826ZM1008.41 300.257H1020.13V294.397H1008.41V300.257ZM996.693 297.327C995.229 297.327 989.369 298.426 979.115 300.257V306.116H982.045L996.693 303.187V297.327ZM982.045 317.835V323.694L1002.55 320.765V314.905L982.045 317.835ZM812.123 320.765H817.982V323.694C816.151 323.694 813.222 324.793 809.193 326.624H797.475V323.694L812.123 320.765ZM964.467 317.835C961.171 317.835 959.34 319.666 958.607 323.694H970.326V317.835H964.467ZM750.6 335.413V338.343H744.74V335.413H750.6ZM1090.44 335.413C1053.46 343.104 1028.92 347.132 1017.2 347.132H1014.27V352.991C1027.46 352.991 1052.72 348.963 1090.44 341.272V335.413ZM809.193 344.202V347.132H803.334V344.202H809.193ZM797.475 347.132V350.062H791.615V347.132H797.475ZM993.764 355.921H1005.48V350.062H993.764V355.921ZM776.967 361.78C785.39 361.78 793.446 359.949 800.404 355.921C804.433 355.921 806.264 357.752 806.264 361.78L791.615 364.71H776.967V361.78ZM741.811 358.851H753.529V361.78C745.473 361.78 737.782 362.879 730.092 364.71H724.232V361.78L741.811 358.851ZM759.389 367.64V370.569H753.529V367.64H759.389ZM747.67 370.569H750.6V373.499C745.106 373.499 739.247 375.33 733.021 379.358L730.092 373.499L747.67 370.569ZM791.615 379.358V382.288H782.826V379.358H791.615ZM776.967 382.288V385.218H771.107V382.288H776.967ZM750.6 388.147V391.077H738.881V388.147H750.6ZM735.951 391.077V394.007H730.092V391.077H735.951ZM806.264 399.866V405.726H803.334V399.866H806.264ZM879.506 446.741V452.601H876.576V446.741H879.506ZM820.912 449.671V455.53H817.982V449.671H820.912ZM838.49 461.39V464.319C838.49 467.981 835.561 478.602 829.701 496.546H826.771V493.616C832.631 477.137 835.561 466.15 835.561 461.39H838.49ZM782.826 467.249V476.038H779.896V467.249H782.826ZM779.896 478.968V484.827H776.967V478.968H779.896ZM776.967 487.757V493.616H774.037V487.757H776.967ZM823.842 505.335V511.194H820.912V505.335H823.842ZM826.771 558.069V563.929H823.842V558.069H826.771ZM838.49 560.999V566.858H835.561V560.999H838.49ZM774.037 575.647V581.507H771.107V575.647H774.037ZM820.912 602.015V604.944C819.813 618.494 816.884 625.452 812.123 625.452C816.151 613.001 817.982 605.311 817.982 602.015H820.912ZM765.248 604.944V610.804H762.318V604.944H765.248ZM762.318 613.733V619.593H759.389V613.733H762.318ZM759.389 622.522V628.382H756.459V622.522H759.389ZM797.475 640.101V643.03L791.615 663.538H788.686V660.608C788.686 659.51 790.517 652.552 794.545 640.101H797.475ZM823.842 648.89V654.749H820.912V648.89H823.842ZM806.264 651.819V657.679H803.334V651.819H806.264ZM741.811 651.819C737.782 651.819 727.162 681.116 709.584 739.71V742.64H712.514C731.923 694.666 741.811 665.369 741.811 654.749V651.819ZM750.6 669.397C750.6 670.496 746.571 682.215 738.881 704.554H741.811C746.571 704.554 751.698 693.934 756.459 672.327V669.397H750.6ZM730.092 736.78H735.951L738.881 716.272H733.021L730.092 736.78ZM762.318 719.202V725.062H759.389V719.202H762.318ZM700.795 757.288H706.654V754.358H700.795V757.288ZM665.639 766.077C653.188 782.19 642.567 810.389 633.412 851.038V853.968H636.342C643.666 852.137 653.554 823.938 665.639 769.007V766.077ZM715.443 766.077C715.443 770.472 714.345 774.5 712.514 777.796H715.443C719.472 777.796 721.303 775.965 721.303 771.937V766.077H715.443ZM656.85 833.46H659.779C664.54 833.46 672.23 812.952 683.217 771.937H677.357L656.85 833.46ZM706.654 795.374H712.514V792.444H706.654V795.374ZM733.021 798.304V801.233C727.162 816.614 724.232 825.403 724.232 827.601H721.303V824.671C721.303 822.474 724.232 813.685 730.092 798.304H733.021ZM750.6 833.46C747.304 833.46 745.473 835.291 744.74 839.319V842.249H750.6V833.46ZM724.232 848.108C724.232 851.404 722.401 859.095 718.373 871.546H724.232L730.092 848.108H724.232ZM738.881 862.757V865.687H744.74L747.67 851.038V848.108H741.811L738.881 862.757ZM1333.97 256.312C1323.35 256.312 1302.85 259.241 1272.45 265.101C1132.19 302.82 1050.16 335.779 1026.36 364.71L1099.6 329.554H1108.39V332.483C1089.71 333.582 1046.5 361.048 979.481 414.515C989.369 414.515 1001.82 406.824 1017.57 391.077C1100.33 337.977 1203.97 300.989 1328.11 279.749V282.679C1308.71 288.538 1283.07 293.299 1251.94 297.327C1149.4 326.258 1088.98 352.625 1070.3 376.429C1072.5 376.429 1075.43 375.33 1079.09 373.499H1082.02C1082.02 376.429 1075.06 384.119 1061.51 396.937V399.866C1066.27 399.866 1075.79 395.838 1090.81 388.147H1093.74V391.077C1088.98 391.077 1067.74 403.895 1029.29 429.163C1017.2 444.91 1008.41 452.601 1002.92 452.601C1002.92 454.432 1004.02 455.53 1005.85 455.53L994.13 467.249V473.108H997.06L1002.92 470.179V473.108C1016.47 473.108 1023.43 469.08 1023.43 461.39V458.46C1021.6 458.46 1020.5 459.559 1020.5 461.39H1017.57L1020.5 455.53V452.601L1017.57 446.741C1020.5 446.741 1029.29 444.91 1043.93 440.882H1046.86C1046.86 444.91 1043.93 446.741 1038.08 446.741V452.601C1043.57 452.601 1049.43 450.77 1055.65 446.741H1058.58C1035.15 465.418 1023.43 476.404 1023.43 478.968H1029.29C1077.63 443.812 1106.92 426.233 1117.18 426.233H1123.04V429.163L1108.39 432.093V437.952C1115.71 437.586 1128.53 431.727 1146.47 420.374H1149.4C1149.4 435.755 1124.13 494.349 1073.23 596.155C1042.1 602.747 1026.36 610.438 1026.36 619.593C1026.36 625.452 1028.19 628.382 1032.22 628.382L1043.93 648.89C1043.93 657.312 1022.33 705.286 979.481 792.444V795.374H982.411L994.13 780.726C980.58 828.699 967.763 861.658 956.044 880.335V889.124L967.763 903.772C969.96 903.772 972.89 902.674 976.552 900.843C998.158 900.843 1008.78 904.871 1008.78 912.562C1017.2 912.562 1023.79 909.632 1029.29 903.772C1033.31 903.772 1035.15 905.604 1035.15 909.632L1041 906.702H1046.86L1061.51 909.632C1066.27 904.871 1075.06 890.955 1087.88 868.616C1113.88 766.443 1133.29 712.977 1146.47 707.483C1199.21 748.499 1260.73 785.486 1331.04 818.812H1336.9C1336.9 814.051 1329.95 809.29 1316.4 804.163V801.233H1319.33L1401.36 842.249H1404.29C1381.95 822.107 1349.72 801.6 1307.61 780.726C1293.32 769.373 1249.38 743.006 1175.77 701.624V695.765C1246.45 740.809 1288.2 763.147 1301.75 763.147H1304.68C1303.58 757.654 1282.34 745.936 1240.22 727.991V725.062H1243.15C1270.62 736.78 1298.82 752.527 1328.11 771.937V774.866H1322.25C1327.02 782.557 1331.04 786.585 1333.97 786.585H1339.83L1333.97 777.796C1336.17 777.796 1339.1 778.895 1342.76 780.726C1344.96 780.726 1347.89 779.627 1351.55 777.796C1359.61 781.824 1373.16 790.613 1392.57 804.163H1398.43V798.304C1393.67 798.304 1375.36 787.684 1342.76 766.077V763.147H1345.69C1391.83 785.853 1416.37 798.67 1418.93 801.233H1424.79V795.374C1431.02 799.402 1436.15 801.233 1439.44 801.233V804.163H1436.51L1430.65 801.233H1424.79C1424.79 804.529 1431.75 810.389 1445.3 818.812L1451.16 815.882C1451.16 814.051 1450.06 812.952 1448.23 812.952C1448.23 811.121 1449.33 810.022 1451.16 810.022C1451.16 806.727 1436.51 795.008 1407.22 774.866H1410.15C1428.46 786.219 1441.27 795.008 1448.23 801.233H1454.09C1446.4 791.346 1442.37 785.486 1442.37 783.655C1450.06 783.655 1460.68 789.515 1474.6 801.233H1477.53V798.304C1477.53 796.473 1464.71 786.951 1439.44 769.007L1442.37 763.147C1442.01 759.852 1432.48 752.894 1413.08 742.64H1410.15V748.499H1416V751.429H1413.08C1397.33 746.302 1389.64 741.541 1389.64 736.78C1392.93 736.78 1398.06 738.611 1404.29 742.64H1407.22V736.78H1404.29C1346.06 699.061 1300.28 671.595 1266.59 654.749V651.819C1280.87 634.607 1298.45 622.889 1319.33 616.663C1438.34 529.871 1498.04 455.53 1498.04 394.007V376.429C1498.04 362.513 1496.21 351.893 1492.18 344.202C1463.25 285.608 1411.61 256.312 1336.9 256.312H1333.97ZM1339.83 265.101V268.03H1333.97V265.101H1339.83ZM1266.59 276.819V279.749H1260.73V276.819H1266.59ZM1208 291.468C1210.19 291.468 1213.12 290.369 1216.79 288.538H1225.58V291.468L1210.93 294.397H1208V291.468ZM1199.21 297.327V300.257H1190.42V297.327H1199.21ZM1451.16 303.187L1468.74 317.835V323.694H1465.81C1465.81 321.497 1459.95 314.539 1448.23 303.187H1451.16ZM1240.22 311.976V314.905H1234.36V311.976H1240.22ZM1228.5 314.905V317.835H1222.65V314.905H1228.5ZM1442.37 314.905C1463.98 328.089 1474.6 349.695 1474.6 379.358C1474.6 450.77 1409.05 528.772 1278.31 613.733H1275.38V610.804C1294.06 601.648 1316.4 585.901 1342.76 563.929C1426.62 483.729 1468.74 424.402 1468.74 385.218C1468.74 366.541 1458.85 343.104 1439.44 314.905H1442.37ZM1219.72 317.835V320.765H1210.93V317.835H1219.72ZM1202.14 320.765H1208V323.694C1200.67 323.694 1177.24 331.385 1137.68 347.132H1134.75V344.202L1202.14 320.765ZM1225.58 335.413C1228.87 335.413 1234 333.582 1240.22 329.554H1246.08C1246.08 332.85 1240.22 335.779 1228.5 338.343H1225.58V335.413ZM1199.21 344.202V347.132H1193.35V344.202H1199.21ZM1102.53 358.851C1105.82 358.851 1114.61 354.822 1128.9 347.132H1131.83V350.062C1128.53 350.062 1119.74 354.09 1105.46 361.78H1102.53V358.851ZM1134.75 364.71C1136.95 364.71 1139.88 363.611 1143.54 361.78H1146.47V364.71C1144.64 364.71 1141.71 365.809 1137.68 367.64H1134.75V364.71ZM1017.57 367.64C1008.05 372.767 1003.29 376.795 1002.92 379.358C1012.81 379.358 1018.67 376.429 1020.5 370.569V367.64H1017.57ZM1351.55 370.569H1357.41V379.358H1360.34C1367.3 379.358 1376.09 380.457 1386.71 382.288H1389.64C1389.64 385.218 1379.75 400.965 1360.34 429.163C1302.48 490.32 1259.63 526.209 1231.43 537.562H1228.5C1259.63 457.361 1275.38 411.585 1275.38 399.866C1275.38 388.147 1297.72 382.288 1342.76 382.288H1345.69V376.429H1336.9V373.499L1351.55 370.569ZM1108.39 376.429C1110.58 376.429 1113.51 375.33 1117.18 373.499H1120.11V376.429C1118.28 376.429 1115.35 377.527 1111.32 379.358H1108.39V376.429ZM1307.61 376.429V379.358H1298.82V376.429H1307.61ZM1061.51 376.429C1058.22 376.429 1056.39 378.26 1055.65 382.288V385.218H1058.58C1064.44 381.922 1067.37 378.992 1067.37 376.429H1061.51ZM1295.89 379.358V382.288H1290.03V379.358H1295.89ZM997.06 382.288C972.523 397.669 959.706 407.557 958.974 411.585H964.833C988.271 395.838 999.989 387.049 999.989 385.218V382.288H997.06ZM1442.37 394.007V396.937C1442.37 400.965 1441.27 402.796 1439.44 402.796C1427.36 442.713 1398.06 481.897 1351.55 519.983V517.054C1355.58 509.363 1360.71 505.335 1366.2 505.335C1414.91 452.234 1439.44 414.881 1439.44 394.007H1442.37ZM1459.95 394.007V399.866H1457.02V394.007H1459.95ZM1457.02 402.796V405.726C1449.33 422.938 1445.3 432.459 1445.3 435.022H1442.37V432.093C1450.06 417.078 1454.09 407.557 1454.09 402.796H1457.02ZM1043.93 411.585H1046.86V405.726H1043.93V411.585ZM1407.22 408.655V414.515H1401.36V408.655H1407.22ZM1026.36 417.444C1020.5 420.374 1017.57 423.304 1017.57 426.233L1029.29 423.304V417.444H1026.36ZM1389.64 432.093C1389.64 428.797 1391.47 426.6 1395.5 426.233V429.163C1395.5 433.191 1393.67 435.022 1389.64 435.022V432.093ZM1099.6 437.952C1074.33 452.967 1061.51 461.756 1061.51 464.319V467.249C1076.16 463.221 1089.71 454.432 1102.53 440.882V437.952H1099.6ZM1029.29 455.53H1035.15V452.601H1029.29V455.53ZM1357.41 467.249C1362.17 459.559 1366.2 455.53 1369.13 455.53H1372.06V458.46C1365.1 468.348 1359.97 473.108 1357.41 473.108V467.249ZM1459.95 461.39V464.319C1447.5 488.123 1426.99 512.293 1398.43 537.562V534.632C1437.61 490.32 1457.02 466.15 1457.02 461.39H1459.95ZM1143.54 478.968V481.897C1129.99 507.898 1123.04 522.547 1123.04 525.843H1120.11V522.913C1133.66 496.912 1140.61 482.264 1140.61 478.968H1143.54ZM1169.91 481.897V484.827L1164.05 502.405H1161.12V499.476C1161.12 498.377 1162.95 492.518 1166.98 481.897H1169.91ZM1155.26 487.757V490.687C1143.54 521.082 1128.9 553.309 1111.32 587.366H1105.46L1152.33 487.757H1155.26ZM1380.85 519.983C1376.45 528.04 1366.57 535.73 1351.55 543.421C1369.13 529.871 1377.92 522.181 1377.92 519.983H1380.85ZM1099.6 569.788V572.718C1097.77 576.38 1096.67 579.31 1096.67 581.507H1093.74V578.577C1095.57 574.549 1096.67 571.619 1096.67 569.788H1099.6ZM1275.38 578.577V581.507H1269.52V578.577H1275.38ZM1351.55 578.577L1348.62 584.437H1345.69L1348.62 578.577H1351.55ZM1237.29 622.522V625.452H1231.43V622.522H1237.29ZM1240.22 634.241C1240.22 630.945 1242.05 628.748 1246.08 628.382H1249.01C1249.01 632.41 1247.18 634.241 1243.15 634.241H1240.22ZM1164.05 707.483C1167.71 707.483 1181.26 715.174 1205.07 730.921V733.851H1202.14C1183.46 725.794 1171.01 717.005 1164.05 707.483ZM1257.8 710.413C1259.27 710.413 1269.15 715.174 1287.1 725.062V727.991H1284.17C1269.15 718.104 1259.27 713.343 1254.87 713.343V710.413H1257.8ZM1322.25 713.343V719.202C1318.96 719.202 1317.13 717.371 1316.4 713.343H1322.25ZM1342.76 725.062C1346.79 725.062 1348.62 726.893 1348.62 730.921H1345.69C1342.4 730.921 1340.57 729.09 1339.83 725.062H1342.76ZM1366.2 748.499V751.429H1360.34V748.499H1366.2ZM1061.51 754.358V757.288C1059.68 760.95 1058.58 763.88 1058.58 766.077H1055.65V763.147C1057.48 759.119 1058.58 756.189 1058.58 754.358H1061.51ZM1240.22 754.358C1261.83 762.049 1272.45 767.908 1272.45 771.937C1268.79 771.937 1257.07 767.176 1237.29 757.288V754.358H1240.22ZM1304.68 763.147C1304.68 767.176 1306.51 769.007 1310.54 769.007H1313.47C1313.47 765.711 1311.63 763.514 1307.61 763.147H1304.68ZM1313.47 769.007C1313.47 773.035 1315.3 774.866 1319.33 774.866H1322.25C1322.25 771.57 1320.42 769.373 1316.4 769.007H1313.47ZM1427.72 774.866C1431.75 776.697 1434.68 777.796 1436.51 777.796V780.726H1433.58C1430.29 778.895 1426.26 777.796 1421.86 777.796V774.866H1427.72ZM1348.62 786.585C1352.65 786.585 1354.48 784.754 1354.48 780.726H1348.62V786.585ZM1351.55 792.444C1351.92 795.008 1356.68 799.036 1366.2 804.163H1369.13C1364.37 796.473 1360.71 792.444 1357.41 792.444H1351.55ZM1372.06 810.022H1380.85C1380.85 806.727 1379.02 804.529 1374.99 804.163H1372.06V810.022ZM1457.02 804.163C1458.12 808.191 1462.88 811.854 1471.67 815.882V812.952C1468.74 807.093 1465.81 804.163 1462.88 804.163H1457.02ZM1407.22 812.952H1413.08V807.093H1407.22V812.952ZM1454.09 812.952C1455.19 816.98 1459.95 820.643 1468.74 824.671H1474.6C1473.87 820.643 1469.11 816.614 1459.95 812.952H1454.09ZM1477.53 827.601C1477.53 831.629 1479.36 833.46 1483.39 833.46H1486.32V830.53C1486.32 827.234 1484.49 825.037 1480.46 824.671H1477.53V827.601ZM1363.27 836.39C1364.37 840.418 1369.13 844.08 1377.92 848.108H1380.85V842.249C1377.55 842.249 1372.43 840.418 1366.2 836.39H1363.27ZM961.903 848.108C951.283 859.461 945.424 871.18 944.325 883.265H950.185C950.185 878.504 954.213 868.982 961.903 853.968V848.108ZM1383.78 848.108C1383.78 851.771 1399.53 863.489 1430.65 883.265H1433.58V880.335C1425.16 868.25 1409.78 857.63 1386.71 848.108H1383.78ZM1410.15 851.038H1416V848.108H1410.15V851.038ZM1418.93 853.968C1423.7 861.658 1427.72 865.687 1430.65 865.687H1433.58V862.757C1433.58 859.827 1429.55 856.897 1421.86 853.968H1418.93ZM1907.46 224.451H1913.32C1913.32 221.155 1911.49 218.958 1907.46 218.592V224.451ZM1866.44 233.24C1866.08 243.494 1849.6 279.749 1816.64 341.639H1810.78V332.85H1804.92C1802.36 352.625 1785.51 381.922 1755.12 420.74C1746.33 455.53 1738.64 476.771 1731.68 485.193C1715.2 526.575 1691.03 569.422 1658.44 614.1C1658.44 578.211 1677.85 512.659 1717.03 417.811C1725.09 358.851 1733.88 312.708 1743.4 280.115V277.186C1743.4 267.298 1726.92 261.438 1693.59 259.607C1688.1 264.734 1682.24 268.763 1676.01 271.326C1671.25 263.636 1667.23 259.607 1664.3 259.607L1649.65 271.326L1635 262.537C1629.14 262.537 1626.21 264.368 1626.21 268.396C1621.08 268.396 1614.12 265.467 1605.7 259.607H1599.84V265.467C1586.29 297.693 1579.33 316.37 1579.33 321.131C1526.6 514.49 1500.23 637.537 1500.23 690.271C1502.06 703.821 1503.16 714.441 1503.16 722.498C1529.9 802.698 1571.64 842.615 1629.14 842.615H1632.07C1674.18 842.615 1712.27 816.248 1746.33 763.514C1750.72 749.964 1758.41 738.245 1769.76 728.357C1800.16 669.397 1824.7 626.551 1843.01 599.451C1878.9 506.067 1908.19 439.417 1930.9 400.232V397.303H1922.11C1912.59 416.346 1902.7 432.093 1892.81 444.178L1895.74 450.037C1883.29 462.854 1870.47 489.222 1857.66 529.139H1854.73V523.279C1906.36 416.712 1943.35 334.681 1966.05 277.186H1957.26L1954.33 288.904C1933.83 322.229 1900.5 384.852 1854.73 476.404C1833.85 528.772 1822.13 555.14 1819.57 555.506C1819.57 551.111 1826.53 529.505 1840.08 491.053C1864.25 444.178 1879.99 410.853 1886.95 391.443H1881.09L1854.73 450.037H1851.8V447.107C1865.35 410.12 1875.23 391.443 1881.09 391.443C1881.09 388.147 1879.26 385.95 1875.23 385.584V376.795C1892.81 339.808 1901.6 318.201 1901.6 312.342H1895.74C1893.91 325.892 1890.98 332.85 1886.95 332.85C1855.46 399.5 1837.88 433.558 1834.22 435.389L1904.53 271.326L1901.6 256.678V253.748L1907.46 256.678H1910.39V250.818H1907.46V242.029C1907.46 238.733 1905.63 236.536 1901.6 236.17H1898.67C1898.67 237.269 1885.85 265.467 1860.58 321.131H1857.66V318.201L1860.58 306.482C1874.13 283.411 1881.09 268.763 1881.09 262.537H1875.23C1875.23 269.495 1871.21 274.622 1863.51 277.186C1859.85 294.764 1855.82 303.553 1851.8 303.553C1851.8 286.707 1859.49 265.101 1875.23 239.1V233.24H1866.44ZM1884.02 247.889H1889.88V242.029H1884.02V247.889ZM1886.95 283.045C1886.95 273.157 1889.88 267.298 1895.74 265.467H1898.67L1889.88 277.186L1892.81 283.045H1886.95ZM1840.08 271.326C1837.51 271.326 1829.46 284.144 1816.64 309.412V315.271C1823.96 315.271 1832.75 300.623 1843.01 271.326H1840.08ZM1983.63 271.326C1974.84 294.397 1964.96 314.905 1954.33 332.85V335.779H1957.26C1961.29 335.413 1972.28 314.905 1989.49 274.256V271.326H1983.63ZM1936.76 285.975H1942.62V283.045H1936.76V285.975ZM1910.39 294.764C1907.09 294.764 1904.9 296.595 1904.53 300.623H1907.46C1911.49 300.623 1913.32 298.792 1913.32 294.764H1910.39ZM1927.97 300.623H1933.83V297.693H1927.97V300.623ZM1922.11 315.271H1927.97V312.342H1922.11V315.271ZM1810.78 326.99H1816.64V321.131H1810.78V326.99ZM1910.39 338.709H1916.25V332.85H1910.39V338.709ZM1927.97 385.584V391.443H1930.9C1936.39 391.077 1945.18 376.429 1957.26 347.498L1954.33 341.639L1927.97 385.584ZM1904.53 350.428C1901.23 350.428 1899.04 352.259 1898.67 356.287V362.146H1904.53C1904.53 359.949 1905.63 357.02 1907.46 353.357V350.428H1904.53ZM1834.22 370.936V373.865C1832.39 377.527 1831.29 380.457 1831.29 382.654H1828.36V379.725C1830.19 375.696 1831.29 372.767 1831.29 370.936H1834.22ZM1889.88 376.795H1895.74V370.936H1889.88V376.795ZM1801.99 406.092C1806.39 394.373 1810.41 388.514 1813.71 388.514L1807.85 406.092H1801.99ZM1570.55 423.67V429.529H1567.62V423.67H1570.55ZM1596.91 452.967V455.896C1596.91 458.826 1593.98 470.545 1588.12 491.053H1585.19V488.123C1585.19 486.292 1588.12 474.573 1593.98 452.967H1596.91ZM1819.57 461.756C1819.57 458.46 1821.4 456.263 1825.43 455.896V458.826C1825.43 462.854 1823.6 464.686 1819.57 464.686V461.756ZM1579.33 458.826V461.756C1554.07 582.239 1541.25 660.242 1541.25 696.131C1550.4 764.612 1581.9 798.67 1635 798.67C1654.41 795.374 1664.3 791.346 1664.3 786.951C1650.38 788.782 1642.69 789.881 1640.86 789.881H1632.07V786.951C1658.07 786.951 1677.48 774.134 1690.66 748.865V745.936H1684.8L1690.66 734.217V728.357C1667.23 755.823 1648.55 769.373 1635 769.373C1630.24 769.373 1621.45 767.542 1608.63 763.514V760.584H1611.56L1626.21 763.514C1650.75 763.514 1677.11 738.245 1705.31 687.342C1705.31 696.863 1702.38 706.751 1696.52 716.639V722.498C1706.41 713.343 1712.27 705.286 1714.1 699.061C1715.93 699.061 1717.03 700.159 1717.03 701.99C1721.42 701.99 1725.45 700.892 1728.75 699.061L1743.4 704.92V707.85C1708.24 776.331 1674.18 810.389 1640.86 810.389C1626.94 810.389 1616.32 808.558 1608.63 804.529C1559.93 785.486 1535.39 752.161 1535.39 704.92V701.99C1535.39 627.649 1548.94 546.717 1576.41 458.826H1579.33ZM1555.9 473.475V476.404C1550.04 508.631 1544.18 532.068 1538.32 546.717H1535.39V543.787C1540.88 514.124 1546.74 490.687 1552.97 473.475H1555.9ZM1804.92 493.982V496.912C1803.09 500.208 1801.99 504.236 1801.99 508.631H1799.06V502.771C1800.89 498.743 1801.99 495.813 1801.99 493.982H1804.92ZM1632.07 578.943V584.803H1629.14V578.943H1632.07ZM1564.69 584.803V590.662L1561.76 608.24H1558.83V602.381L1561.76 584.803H1564.69ZM1629.14 587.732V602.381H1626.21V587.732H1629.14ZM1585.19 608.24V625.818L1576.41 701.99L1579.33 716.639V719.568H1576.41C1576.41 717.737 1575.31 710.047 1573.48 696.131C1573.48 683.313 1576.41 654.017 1582.26 608.24H1585.19ZM1523.67 628.748V631.678C1521.84 660.242 1520.74 685.511 1520.74 707.85H1517.81C1517.81 690.638 1516.71 678.919 1514.88 672.693C1515.98 667.933 1518.18 653.284 1520.74 628.748H1523.67ZM1614.49 663.904C1614.49 669.764 1615.59 676.722 1617.42 684.412V687.342L1611.56 684.412V663.904H1614.49ZM1664.3 687.342V693.201H1661.37V687.342H1664.3ZM1614.49 699.061C1614.49 703.455 1615.59 707.483 1617.42 710.779V713.709H1614.49C1614.49 711.512 1613.39 708.582 1611.56 704.92V699.061H1614.49ZM1696.52 801.6C1735.71 741.541 1758.05 710.413 1763.91 707.85C1763.91 727.259 1742.3 758.387 1699.45 801.6H1696.52ZM1523.67 710.779V716.639H1520.74V710.779H1523.67ZM1652.58 719.568C1652.58 716.272 1654.41 714.075 1658.44 713.709H1661.37C1658.07 719.568 1655.14 722.498 1652.58 722.498V719.568ZM1722.89 713.709C1719.59 713.709 1714.83 720.667 1708.24 734.217V740.076C1714.47 737.513 1720.33 729.456 1725.82 716.639V713.709H1722.89ZM1523.67 728.357C1544.18 788.782 1573.48 819.178 1611.56 819.178V822.107L1593.98 825.037L1591.05 819.178C1568.35 819.178 1544.91 791.712 1520.74 737.146V728.357H1523.67ZM1696.52 737.146H1702.38C1702.38 733.851 1700.55 731.653 1696.52 731.287V737.146ZM1699.45 745.936C1695.42 746.668 1691.4 751.429 1687.73 760.584V763.514H1690.66C1694.69 762.415 1698.35 757.654 1702.38 748.865C1700.55 748.865 1699.45 747.767 1699.45 745.936ZM1681.87 769.373C1670.16 778.528 1664.3 784.388 1664.3 786.951H1670.16C1680.04 779.993 1684.8 774.866 1684.8 772.303V769.373H1681.87ZM1652.58 822.107V825.037H1643.79V822.107H1652.58ZM2186.15 265.101C2039.66 325.892 1966.42 391.443 1966.42 461.39C1966.42 519.251 1992.79 559.168 2045.52 581.507H2051.38C2015.13 558.069 1991.69 529.871 1981.07 496.546V484.827H1984C1984 526.209 2017.32 558.436 2083.61 581.507V584.437C2077.02 584.437 2072.25 585.535 2068.96 587.366C2068.96 585.535 2067.86 584.437 2066.03 584.437H2063.1V590.296C2124.99 603.846 2163.81 615.564 2180.29 625.452C2175.53 632.41 2169.67 643.396 2162.71 657.679C2162.71 676.355 2112.9 701.624 2013.29 733.851V739.71C2025.01 739.71 2045.52 734.949 2074.82 725.062H2077.75V727.991C2040.03 745.569 2011.46 754.358 1992.79 754.358C1900.87 788.05 1855.09 807.459 1855.09 812.952H1866.81C1950.31 777.796 2003.04 760.218 2025.01 760.218C2096.42 743.738 2149.16 716.272 2183.22 678.187L2206.65 634.241C2206.65 653.65 2198.96 671.961 2183.22 689.905V695.765H2186.15C2190.91 695.765 2195.67 688.807 2200.79 675.257H2203.72V681.116C2182.12 711.146 2153.92 731.653 2118.76 742.64H2115.83C2115.83 738.245 2120.59 735.315 2130.48 733.851V727.991C2127.92 727.991 2104.48 736.78 2060.17 754.358V760.218H2066.03V763.147C2062 763.147 2055.41 766.077 2045.52 771.937L2048.45 777.796C2017.32 784.754 2001.58 790.613 2001.58 795.374C2027.58 795.374 2059.8 786.585 2098.26 769.007H2101.19L2092.4 780.726C1993.89 803.797 1927.6 827.234 1893.18 851.038L1896.11 856.897C1894.28 856.897 1891.35 857.996 1887.32 859.827L1881.46 856.897C1867.91 863.855 1860.95 868.982 1860.95 871.546V877.405H1872.67V880.335H1866.81V883.265H1869.74L1890.25 877.405C1893.54 867.518 1899.4 861.658 1907.83 859.827C1907.83 857.996 1906.73 856.897 1904.9 856.897C1904.9 853.602 1906.73 851.404 1910.76 851.038H1913.69L1910.76 856.897C1914.05 856.897 1921.74 855.066 1934.19 851.038H1937.12V853.968C1935.29 853.968 1932.36 855.066 1928.33 856.897L1931.26 862.757L1948.84 859.827C1961.66 849.939 1970.45 845.179 1975.21 845.179V851.038C1927.97 868.25 1899.77 881.8 1890.25 892.054H1893.18C1958 866.785 1996.08 853.968 2007.44 853.968H2010.37V856.897C2004.51 856.897 1985.1 862.757 1951.77 874.476V880.335H1954.7C1964.96 880.335 1985.46 873.377 2016.22 859.827V856.897L2013.29 851.038C2020.62 851.038 2032.34 847.01 2048.45 839.319H2051.38V842.249C2041.49 843.714 2036.73 846.644 2036.73 851.038C2059.07 851.038 2091.3 841.15 2133.41 821.741C2246.57 779.627 2303.33 712.244 2303.33 619.593C2303.33 565.027 2272.94 523.279 2212.51 493.616C2166.74 487.391 2129.75 476.404 2101.19 461.39C2130.85 425.867 2177.72 399.5 2241.81 382.288C2302.24 368.006 2332.63 358.118 2332.63 352.991V341.272C2332.63 337.244 2329.7 335.413 2323.84 335.413C2320.91 320.032 2313.22 306.482 2300.4 294.397C2294.91 276.819 2288.32 268.03 2279.9 268.03V265.101L2282.83 250.452C2281 250.452 2279.9 249.354 2279.9 247.522L2186.15 265.101ZM2171.5 285.608V288.538H2165.64V285.608H2171.5ZM2159.78 309.046C2159.78 305.75 2161.61 303.553 2165.64 303.187V309.046H2159.78ZM2089.47 326.624C2089.47 322.596 2100.09 315.638 2121.69 306.116H2124.62V309.046C2119.86 309.046 2108.14 314.905 2089.47 326.624ZM2139.27 317.835V320.765H2133.41V317.835H2139.27ZM2171.5 317.835C2171.5 321.131 2162.71 326.258 2145.13 332.483H2142.2V329.554L2171.5 317.835ZM1992.79 458.46C1992.79 417.078 2036.73 372.4 2124.62 323.694H2127.55V326.624C2091.3 339.808 2053.21 373.133 2013.29 426.233V432.093C2029.77 409.754 2051.01 388.514 2077.75 367.64H2083.61V370.569H2080.68C2033.8 407.923 2010.37 441.98 2010.37 473.108H2007.44V461.39H2001.58C2001.58 469.08 2003.41 481.897 2007.44 499.476H2013.29C2013.29 497.278 2012.2 494.349 2010.37 490.687V484.827C2012.93 485.193 2019.89 495.813 2030.87 517.054H2039.66L2045.52 519.983H2051.38C2041.49 510.096 2033.44 495.447 2027.94 476.038V473.108H2030.87V476.038C2031.97 490.687 2047.72 509.363 2077.75 531.702H2068.96C2068.96 537.562 2072.99 540.491 2080.68 540.491V543.421C2074.82 543.421 2071.89 545.252 2071.89 549.28C2067.49 549.28 2057.61 544.52 2042.59 534.632H2039.66C2046.25 544.52 2059.8 553.309 2080.68 560.999V563.929H2071.89C2019.15 545.618 1992.79 513.392 1992.79 467.249V458.46ZM2025.01 376.429V382.288H2022.08V376.429H2025.01ZM2083.61 391.077L2045.52 432.093H2042.59C2042.59 428.064 2055.41 414.148 2080.68 391.077H2083.61ZM2092.4 426.233V429.163H2086.54V426.233H2092.4ZM2013.29 432.093C2007.44 433.191 2004.51 441.248 2004.51 455.53H2010.37C2010.37 449.671 2011.46 442.713 2013.29 435.022V432.093ZM2030.87 455.53V458.46L2027.94 470.179H2025.01V467.249L2027.94 455.53H2030.87ZM1981.07 464.319V470.179H1978.14V464.319H1981.07ZM1981.07 473.108V478.968H1978.14V473.108H1981.07ZM2066.03 473.108V478.968H2063.1V473.108H2066.03ZM2025.01 519.983C2025.01 524.012 2026.84 525.843 2030.87 525.843V519.983H2025.01ZM2197.87 602.015C2201.16 602.015 2205.92 609.705 2212.51 625.452L2206.65 628.382C2206.65 619.959 2203.72 611.902 2197.87 604.944V602.015ZM2192.01 613.733V619.593C2188.71 619.593 2186.88 617.762 2186.15 613.733H2192.01ZM2189.08 634.241C2189.08 638.27 2187.25 640.101 2183.22 640.101V634.241H2189.08ZM2209.58 663.538V669.397H2206.65V663.538H2209.58ZM2265.25 669.397V672.327L2262.32 686.976H2259.39V684.046L2262.32 669.397H2265.25ZM2165.64 675.257H2168.57C2154.29 691.37 2136.71 703.089 2115.83 710.413H2112.9V707.483L2165.64 675.257ZM2153.92 739.71C2170.03 736.78 2193.47 718.104 2224.23 684.046C2224.23 699.427 2201.89 718.836 2156.85 742.64H2153.92V739.71ZM2177.36 695.765C2171.5 698.694 2168.57 701.624 2168.57 704.554V707.483H2171.5L2180.29 701.624L2177.36 695.765ZM2089.47 719.202C2089.47 715.906 2095.33 712.977 2107.04 710.413H2109.97V713.343C2106.31 713.343 2100.45 715.174 2092.4 719.202H2089.47ZM2148.06 719.202H2153.92V716.272H2148.06V719.202ZM2215.44 742.64C2218.74 736.78 2221.67 733.851 2224.23 733.851V742.64H2215.44ZM2004.51 736.78C1923.21 762.049 1864.61 783.655 1828.72 801.233V807.093C1843.37 807.093 1866.81 797.205 1899.04 777.796C1965.32 759.119 2000.48 746.302 2004.51 739.71V736.78ZM2168.57 769.007C2173.33 769.007 2181.02 764.979 2192.01 757.288V766.077L2171.5 771.937H2168.57V769.007ZM2027.94 769.007H2033.8V766.077H2027.94V769.007ZM2171.5 789.515C2173.7 789.515 2176.62 788.416 2180.29 786.585H2183.22V789.515C2181.39 789.515 2178.46 790.613 2174.43 792.444H2171.5V789.515ZM1960.56 792.444H1963.49V786.585H1960.56V792.444ZM1951.77 789.515C1947.01 793.543 1943.35 795.374 1940.05 795.374V798.304H1948.84L1954.7 795.374L1951.77 789.515ZM2098.26 807.093C2100.82 804.529 2109.61 799.769 2124.62 792.444H2127.55C2127.55 797.938 2118.76 802.698 2101.19 807.093H2098.26ZM1998.65 792.444C1996.08 792.444 1985.46 796.473 1966.42 804.163V810.022C1969.72 810.022 1981.43 805.994 2001.58 798.304L1998.65 792.444ZM2068.96 807.093V810.022C2064.56 810.022 2060.54 811.121 2057.24 812.952V807.093H2068.96ZM1948.84 810.022C1927.24 816.248 1916.62 821.375 1916.62 824.671V827.601L1951.77 815.882L1948.84 810.022ZM2051.38 818.812V821.741H2045.52V818.812H2051.38ZM1907.83 824.671C1904.53 824.671 1902.7 826.502 1901.97 830.53V833.46H1904.9C1908.92 833.46 1910.76 831.629 1910.76 827.601V824.671H1907.83ZM2092.4 827.601V830.53H2086.54V827.601H2092.4ZM1995.72 830.53V833.46H1989.86V830.53H1995.72ZM1922.47 856.897C1916.62 859.827 1913.69 862.757 1913.69 865.687V868.616C1921.38 865.687 1925.4 862.757 1925.4 859.827V856.897H1922.47ZM1837.51 883.265C1837.51 887.293 1839.34 889.124 1843.37 889.124L1849.23 886.194C1849.23 882.898 1847.4 880.701 1843.37 880.335L1837.51 883.265ZM1940.05 886.194H1942.98V880.335H1940.05V886.194ZM2629.99 183.069C2624.13 185.999 2621.21 188.929 2621.21 191.858C2601.06 187.83 2587.15 185.999 2580.19 185.999C2572.87 187.464 2564.08 212 2553.82 259.241C2521.96 259.241 2488.64 266.199 2454.21 279.749C2364.12 285.975 2317.25 294.031 2313.59 303.187V306.116C2318.35 333.582 2324.21 347.132 2331.17 347.132C2340.32 375.696 2346.18 391.443 2348.74 394.007V402.796L2351.67 408.655H2348.74L2351.67 414.515C2423.08 414.515 2476.55 406.824 2512.81 391.077C2512.81 405.359 2506.95 428.797 2495.23 461.39C2448.35 579.676 2421.99 649.988 2416.13 672.327H2421.99V669.397C2456.04 593.226 2479.48 535.73 2492.3 496.546H2495.23V499.476C2438.47 649.256 2407.34 737.146 2401.48 763.147V766.077H2407.34L2504.02 517.054C2525.62 437.952 2541 395.105 2550.89 388.147C2527.46 455.164 2511.71 503.87 2504.02 534.632C2484.61 580.408 2471.79 615.564 2465.93 640.101H2468.86C2472.89 640.101 2474.72 637.171 2474.72 631.312H2477.65V634.241L2471.79 648.89L2474.72 663.538H2480.58C2480.58 658.411 2491.2 630.945 2512.81 581.507H2515.74V584.437C2513.91 587.732 2512.81 591.761 2512.81 596.155C2458.24 738.611 2430.78 818.445 2430.78 836.39L2433.71 842.249C2429.68 862.024 2427.85 873.743 2427.85 877.405H2433.71L2480.58 736.78H2483.51V739.71C2483.51 744.471 2474.72 771.937 2457.14 821.741H2460.07C2466.3 819.91 2473.99 802.332 2483.51 769.007H2486.44V771.937L2471.79 824.671H2477.65L2498.16 769.007H2501.09V774.866C2495.23 788.782 2492.3 796.473 2492.3 798.304H2495.23C2502.55 793.543 2512.44 769.007 2524.53 725.062V722.132H2518.67C2518.67 725.062 2514.64 738.611 2506.95 763.147H2504.02V757.288C2515.74 730.921 2521.6 711.512 2521.6 698.694L2527.46 701.624C2527.46 703.455 2526.36 706.385 2524.53 710.413V713.343H2527.46C2531.85 713.343 2535.88 704.554 2539.17 686.976C2605.46 514.856 2638.78 425.867 2638.78 420.374C2644.64 381.189 2659.29 361.78 2682.73 361.78V355.921H2659.29V350.062C2749.01 339.441 2794.06 330.652 2794.06 323.694V320.765C2732.9 324.793 2691.88 330.652 2671.01 338.343H2668.08L2676.87 323.694H2673.94C2673.94 319.3 2675.04 315.271 2676.87 311.976C2688.59 308.68 2694.45 305.75 2694.45 303.187V300.257C2692.62 300.257 2689.69 301.355 2685.66 303.187H2679.8C2679.8 298.792 2684.56 295.862 2694.45 294.397L2773.55 276.819L2770.62 270.96C2782.34 270.96 2798.08 268.03 2817.49 262.171V256.312H2808.71C2803.94 256.312 2795.16 254.48 2782.34 250.452C2782.34 258.143 2777.58 262.171 2767.69 262.171V259.241C2765.86 259.241 2762.93 260.34 2758.9 262.171C2750.11 258.143 2741.32 256.312 2732.53 256.312V253.382L2773.55 241.663L2770.62 235.804C2724.84 241.663 2700.31 246.424 2697.38 250.452C2697.38 248.621 2695.55 247.522 2691.52 247.522V244.593C2712.76 240.564 2726.31 238.733 2732.53 238.733V232.874H2726.67C2712.76 232.874 2702.14 234.705 2694.45 238.733C2694.45 236.902 2693.35 235.804 2691.52 235.804L2697.38 197.718L2694.45 191.858H2697.38C2697.38 187.83 2691.52 184.9 2679.8 183.069C2660.39 183.069 2645.74 184.9 2635.85 188.929C2635.85 185.633 2634.02 183.436 2629.99 183.069ZM2776.48 241.663H2788.2V235.804H2776.48V241.663ZM2706.17 270.96V273.89H2697.38V270.96H2706.17ZM2747.18 270.96V273.89H2741.32V270.96H2747.18ZM2524.53 273.89V276.819H2518.67V273.89H2524.53ZM2542.1 288.538V291.468H2533.31V288.538H2542.1ZM2504.02 294.397V297.327H2495.23V294.397H2504.02ZM2729.6 300.257H2741.32V294.397H2729.6V300.257ZM2717.88 297.327C2716.42 297.327 2710.56 298.426 2700.31 300.257V306.116H2703.24L2717.88 303.187V297.327ZM2703.24 317.835V323.694L2723.74 320.765V314.905L2703.24 317.835ZM2533.31 320.765H2539.17V323.694C2537.34 323.694 2534.41 324.793 2530.38 326.624H2518.67V323.694L2533.31 320.765ZM2685.66 317.835C2682.36 317.835 2680.53 319.666 2679.8 323.694H2691.52V317.835H2685.66ZM2471.79 335.413V338.343H2465.93V335.413H2471.79ZM2811.63 335.413C2774.65 343.104 2750.11 347.132 2738.39 347.132H2735.46V352.991C2748.65 352.991 2773.92 348.963 2811.63 341.272V335.413ZM2530.38 344.202V347.132H2524.53V344.202H2530.38ZM2518.67 347.132V350.062H2512.81V347.132H2518.67ZM2714.96 355.921H2726.67V350.062H2714.96V355.921ZM2498.16 361.78C2506.58 361.78 2514.64 359.949 2521.6 355.921C2525.62 355.921 2527.46 357.752 2527.46 361.78L2512.81 364.71H2498.16V361.78ZM2463 358.851H2474.72V361.78C2466.66 361.78 2458.97 362.879 2451.28 364.71H2445.42V361.78L2463 358.851ZM2480.58 367.64V370.569H2474.72V367.64H2480.58ZM2468.86 370.569H2471.79V373.499C2466.3 373.499 2460.44 375.33 2454.21 379.358L2451.28 373.499L2468.86 370.569ZM2512.81 379.358V382.288H2504.02V379.358H2512.81ZM2498.16 382.288V385.218H2492.3V382.288H2498.16ZM2471.79 388.147V391.077H2460.07V388.147H2471.79ZM2457.14 391.077V394.007H2451.28V391.077H2457.14ZM2527.46 399.866V405.726H2524.53V399.866H2527.46ZM2600.7 446.741V452.601H2597.77V446.741H2600.7ZM2542.1 449.671V455.53H2539.17V449.671H2542.1ZM2559.68 461.39V464.319C2559.68 467.981 2556.75 478.602 2550.89 496.546H2547.96V493.616C2553.82 477.137 2556.75 466.15 2556.75 461.39H2559.68ZM2504.02 467.249V476.038H2501.09V467.249H2504.02ZM2501.09 478.968V484.827H2498.16V478.968H2501.09ZM2498.16 487.757V493.616H2495.23V487.757H2498.16ZM2545.03 505.335V511.194H2542.1V505.335H2545.03ZM2547.96 558.069V563.929H2545.03V558.069H2547.96ZM2559.68 560.999V566.858H2556.75V560.999H2559.68ZM2495.23 575.647V581.507H2492.3V575.647H2495.23ZM2542.1 602.015V604.944C2541 618.494 2538.08 625.452 2533.31 625.452C2537.34 613.001 2539.17 605.311 2539.17 602.015H2542.1ZM2486.44 604.944V610.804H2483.51V604.944H2486.44ZM2483.51 613.733V619.593H2480.58V613.733H2483.51ZM2480.58 622.522V628.382H2477.65V622.522H2480.58ZM2518.67 640.101V643.03L2512.81 663.538H2509.88V660.608C2509.88 659.51 2511.71 652.552 2515.74 640.101H2518.67ZM2545.03 648.89V654.749H2542.1V648.89H2545.03ZM2527.46 651.819V657.679H2524.53V651.819H2527.46ZM2463 651.819C2458.97 651.819 2448.35 681.116 2430.78 739.71V742.64H2433.71C2453.11 694.666 2463 665.369 2463 654.749V651.819ZM2471.79 669.397C2471.79 670.496 2467.76 682.215 2460.07 704.554H2463C2467.76 704.554 2472.89 693.934 2477.65 672.327V669.397H2471.79ZM2451.28 736.78H2457.14L2460.07 716.272H2454.21L2451.28 736.78ZM2483.51 719.202V725.062H2480.58V719.202H2483.51ZM2421.99 757.288H2427.85V754.358H2421.99V757.288ZM2386.83 766.077C2374.38 782.19 2363.76 810.389 2354.6 851.038V853.968H2357.53C2364.86 852.137 2374.75 823.938 2386.83 769.007V766.077ZM2436.63 766.077C2436.63 770.472 2435.54 774.5 2433.71 777.796H2436.63C2440.66 777.796 2442.49 775.965 2442.49 771.937V766.077H2436.63ZM2378.04 833.46H2380.97C2385.73 833.46 2393.42 812.952 2404.41 771.937H2398.55L2378.04 833.46ZM2427.85 795.374H2433.71V792.444H2427.85V795.374ZM2454.21 798.304V801.233C2448.35 816.614 2445.42 825.403 2445.42 827.601H2442.49V824.671C2442.49 822.474 2445.42 813.685 2451.28 798.304H2454.21ZM2471.79 833.46C2468.5 833.46 2466.66 835.291 2465.93 839.319V842.249H2471.79V833.46ZM2445.42 848.108C2445.42 851.404 2443.59 859.095 2439.56 871.546H2445.42L2451.28 848.108H2445.42ZM2460.07 862.757V865.687H2465.93L2468.86 851.038V848.108H2463L2460.07 862.757Z" fill="white"/>
<path d="M37.4756 1178.61V1251H22.4609V1073.27H83.0078C101.481 1073.27 116.048 1077.99 126.709 1087.43C137.451 1096.87 142.822 1109.85 142.822 1126.37C142.822 1143.05 137.655 1155.95 127.319 1165.06C117.065 1174.1 102.173 1178.61 82.6416 1178.61H37.4756ZM37.4756 1165.92H83.0078C97.5749 1165.92 108.683 1162.46 116.333 1155.54C123.983 1148.62 127.808 1138.98 127.808 1126.61C127.808 1114.32 123.983 1104.56 116.333 1097.31C108.765 1089.99 97.9818 1086.25 83.9844 1086.08H37.4756V1165.92ZM334.17 1177.03H282.534V1251H267.397V1073.27H325.137C344.098 1073.27 358.91 1077.86 369.57 1087.06C380.231 1096.26 385.562 1109.11 385.562 1125.63C385.562 1137.03 382.225 1147.08 375.552 1155.79C368.879 1164.49 359.927 1170.51 348.696 1173.85L393.13 1249.41V1251H377.139L334.17 1177.03ZM282.534 1164.21H328.555C341.169 1164.21 351.3 1160.63 358.95 1153.47C366.6 1146.3 370.425 1137.03 370.425 1125.63C370.425 1113.1 366.437 1103.38 358.462 1096.46C350.487 1089.54 339.297 1086.08 324.893 1086.08H282.534V1164.21ZM615.85 1165.79H532.72V1238.3H628.301V1251H517.705V1073.27H627.69V1086.08H532.72V1153.1H615.85V1165.79ZM877.144 1195.58C875.109 1214.3 868.395 1228.62 857.002 1238.55C845.69 1248.48 830.594 1253.44 811.714 1253.44C798.53 1253.44 786.852 1250.15 776.68 1243.55C766.589 1236.96 758.776 1227.64 753.242 1215.6C747.708 1203.47 744.901 1189.64 744.819 1174.1V1151.02C744.819 1135.24 747.586 1121.24 753.12 1109.03C758.654 1096.83 766.589 1087.43 776.924 1080.83C787.34 1074.16 799.303 1070.82 812.812 1070.82C831.855 1070.82 846.87 1075.99 857.856 1086.33C868.924 1096.58 875.353 1110.78 877.144 1128.93H862.007C858.263 1098.74 841.865 1083.64 812.812 1083.64C796.699 1083.64 783.841 1089.66 774.238 1101.71C764.717 1113.75 759.956 1130.39 759.956 1151.63V1173.36C759.956 1193.87 764.595 1210.23 773.872 1222.44C783.231 1234.64 795.845 1240.75 811.714 1240.75C827.42 1240.75 839.261 1237 847.236 1229.52C855.212 1221.95 860.135 1210.64 862.007 1195.58H877.144ZM1023.2 1251H1008.19V1073.27H1023.2V1251ZM1263.38 1207.3C1263.38 1197.45 1259.92 1189.68 1253 1183.98C1246.09 1178.21 1233.43 1172.75 1215.04 1167.63C1196.65 1162.42 1183.22 1156.76 1174.76 1150.66C1162.71 1142.03 1156.69 1130.72 1156.69 1116.72C1156.69 1103.13 1162.26 1092.11 1173.41 1083.64C1184.64 1075.1 1198.97 1070.82 1216.38 1070.82C1228.18 1070.82 1238.72 1073.1 1248 1077.66C1257.36 1082.22 1264.6 1088.57 1269.73 1096.7C1274.85 1104.84 1277.42 1113.92 1277.42 1123.92H1262.28C1262.28 1111.8 1258.13 1102.07 1249.83 1094.75C1241.53 1087.34 1230.38 1083.64 1216.38 1083.64C1202.79 1083.64 1191.97 1086.69 1183.91 1092.8C1175.85 1098.82 1171.83 1106.71 1171.83 1116.48C1171.83 1125.51 1175.45 1132.88 1182.69 1138.57C1189.93 1144.27 1201.53 1149.32 1217.48 1153.71C1233.43 1158.02 1245.52 1162.54 1253.74 1167.26C1261.95 1171.9 1268.14 1177.47 1272.29 1183.98C1276.44 1190.49 1278.52 1198.18 1278.52 1207.05C1278.52 1221.05 1272.9 1232.28 1261.67 1240.75C1250.52 1249.21 1235.79 1253.44 1217.48 1253.44C1204.95 1253.44 1193.43 1251.2 1182.93 1246.73C1172.52 1242.25 1164.58 1235.99 1159.13 1227.93C1153.76 1219.87 1151.07 1210.64 1151.07 1200.22H1166.09C1166.09 1212.75 1170.77 1222.64 1180.13 1229.88C1189.49 1237.12 1201.94 1240.75 1217.48 1240.75C1231.32 1240.75 1242.42 1237.69 1250.81 1231.59C1259.19 1225.49 1263.38 1217.39 1263.38 1207.3ZM1420.55 1251H1405.53V1073.27H1420.55V1251ZM1691.48 1171.78C1691.48 1188.13 1688.64 1202.5 1682.94 1214.87C1677.32 1227.24 1669.27 1236.76 1658.77 1243.43C1648.27 1250.1 1636.15 1253.44 1622.39 1253.44C1601.64 1253.44 1584.88 1246.04 1572.1 1231.22C1559.32 1216.33 1552.93 1196.27 1552.93 1171.04V1152.73C1552.93 1136.54 1555.78 1122.22 1561.48 1109.76C1567.26 1097.23 1575.4 1087.63 1585.89 1080.96C1596.39 1074.2 1608.48 1070.82 1622.15 1070.82C1635.82 1070.82 1647.86 1074.12 1658.28 1080.71C1668.78 1087.3 1676.88 1096.62 1682.57 1108.67C1688.27 1120.71 1691.24 1134.67 1691.48 1150.54V1171.78ZM1676.47 1152.49C1676.47 1131.09 1671.63 1114.32 1661.94 1102.2C1652.26 1090.07 1638.99 1084.01 1622.15 1084.01C1605.63 1084.01 1592.44 1090.11 1582.6 1102.32C1572.83 1114.44 1567.95 1131.41 1567.95 1153.22V1171.78C1567.95 1192.85 1572.83 1209.58 1582.6 1221.95C1592.36 1234.24 1605.63 1240.38 1622.39 1240.38C1639.4 1240.38 1652.67 1234.32 1662.19 1222.19C1671.71 1209.98 1676.47 1193.02 1676.47 1171.29V1152.49ZM1952.9 1251H1937.89L1835.71 1098.9V1251H1820.58V1073.27H1835.71L1938.01 1225.49V1073.27H1952.9V1251ZM2256.37 1178.61V1251H2241.36V1073.27H2301.9C2320.38 1073.27 2334.94 1077.99 2345.61 1087.43C2356.35 1096.87 2361.72 1109.85 2361.72 1126.37C2361.72 1143.05 2356.55 1155.95 2346.22 1165.06C2335.96 1174.1 2321.07 1178.61 2301.54 1178.61H2256.37ZM2256.37 1165.92H2301.9C2316.47 1165.92 2327.58 1162.46 2335.23 1155.54C2342.88 1148.62 2346.7 1138.98 2346.7 1126.61C2346.7 1114.32 2342.88 1104.56 2335.23 1097.31C2327.66 1089.99 2316.88 1086.25 2302.88 1086.08H2256.37V1165.92ZM2565.76 1201.2H2485.07L2466.76 1251H2451.02L2518.28 1073.27H2532.56L2599.82 1251H2584.19L2565.76 1201.2ZM2489.71 1188.38H2561L2525.36 1091.58L2489.71 1188.38ZM2783.72 1177.03H2732.08V1251H2716.95V1073.27H2774.69C2793.65 1073.27 2808.46 1077.86 2819.12 1087.06C2829.78 1096.26 2835.11 1109.11 2835.11 1125.63C2835.11 1137.03 2831.78 1147.08 2825.1 1155.79C2818.43 1164.49 2809.48 1170.51 2798.25 1173.85L2842.68 1249.41V1251H2826.69L2783.72 1177.03ZM2732.08 1164.21H2778.11C2790.72 1164.21 2800.85 1160.63 2808.5 1153.47C2816.15 1146.3 2819.98 1137.03 2819.98 1125.63C2819.98 1113.1 2815.99 1103.38 2808.01 1096.46C2800.04 1089.54 2788.85 1086.08 2774.44 1086.08H2732.08V1164.21ZM3078.1 1086.08H3017.18V1251H3002.17V1086.08H2941.38V1073.27H3078.1V1086.08ZM3296.79 1207.3C3296.79 1197.45 3293.33 1189.68 3286.41 1183.98C3279.49 1178.21 3266.84 1172.75 3248.45 1167.63C3230.06 1162.42 3216.63 1156.76 3208.16 1150.66C3196.12 1142.03 3190.1 1130.72 3190.1 1116.72C3190.1 1103.13 3195.67 1092.11 3206.82 1083.64C3218.05 1075.1 3232.37 1070.82 3249.79 1070.82C3261.59 1070.82 3272.13 1073.1 3281.41 1077.66C3290.76 1082.22 3298.01 1088.57 3303.13 1096.7C3308.26 1104.84 3310.83 1113.92 3310.83 1123.92H3295.69C3295.69 1111.8 3291.54 1102.07 3283.24 1094.75C3274.94 1087.34 3263.79 1083.64 3249.79 1083.64C3236.2 1083.64 3225.38 1086.69 3217.32 1092.8C3209.26 1098.82 3205.23 1106.71 3205.23 1116.48C3205.23 1125.51 3208.86 1132.88 3216.1 1138.57C3223.34 1144.27 3234.94 1149.32 3250.89 1153.71C3266.84 1158.02 3278.92 1162.54 3287.14 1167.26C3295.36 1171.9 3301.55 1177.47 3305.7 1183.98C3309.85 1190.49 3311.92 1198.18 3311.92 1207.05C3311.92 1221.05 3306.31 1232.28 3295.08 1240.75C3283.93 1249.21 3269.2 1253.44 3250.89 1253.44C3238.36 1253.44 3226.84 1251.2 3216.34 1246.73C3205.93 1242.25 3197.99 1235.99 3192.54 1227.93C3187.17 1219.87 3184.48 1210.64 3184.48 1200.22H3199.5C3199.5 1212.75 3204.18 1222.64 3213.54 1229.88C3222.89 1237.12 3235.35 1240.75 3250.89 1240.75C3264.72 1240.75 3275.83 1237.69 3284.21 1231.59C3292.6 1225.49 3296.79 1217.39 3296.79 1207.3Z" fill="white"/>
</svg>
