<svg width="4877" height="715" viewBox="0 0 4877 715" fill="none" xmlns="http://www.w3.org/2000/svg">
<rect width="4877" height="477" fill="#0F203A"/>
<path d="M186.147 314V216.875H146.947V190.625H257.547V216.875H218.347V314H186.147ZM291.595 314V190.625H350.92C364.92 190.625 375.711 194.067 383.295 200.95C390.995 207.717 394.845 217.167 394.845 229.3C394.845 238.517 392.511 246.275 387.845 252.575C383.295 258.758 376.645 263.075 367.895 265.525C374.428 267.275 379.678 271.767 383.645 279L402.895 314H367.545L346.195 274.8C344.795 272.35 342.986 270.6 340.77 269.55C338.67 268.5 336.22 267.975 333.42 267.975H323.795V314H291.595ZM323.795 245.225H345.145C357.861 245.225 364.22 240.208 364.22 230.175C364.22 220.258 357.861 215.3 345.145 215.3H323.795V245.225ZM491.629 315.925C473.662 315.925 459.896 311.375 450.329 302.275C440.879 293.175 436.154 279.583 436.154 261.5V190.625H468.354V261.85C468.354 270.833 470.337 277.6 474.304 282.15C478.271 286.7 484.046 288.975 491.629 288.975C499.096 288.975 504.812 286.7 508.779 282.15C512.746 277.6 514.729 270.833 514.729 261.85V190.625H546.404V261.5C546.404 279.583 541.737 293.175 532.404 302.275C523.187 311.375 509.596 315.925 491.629 315.925ZM635.662 315.925C625.979 315.925 616.704 314.758 607.837 312.425C598.971 309.975 591.679 306.767 585.962 302.8L594.887 277.775C600.254 281.392 606.554 284.25 613.787 286.35C621.021 288.45 628.312 289.5 635.662 289.5C643.362 289.5 648.729 288.508 651.762 286.525C654.912 284.425 656.487 281.858 656.487 278.825C656.487 276.142 655.379 273.983 653.162 272.35C651.062 270.717 647.271 269.317 641.787 268.15L621.312 263.775C599.146 258.992 588.062 247.383 588.062 228.95C588.062 220.9 590.221 213.842 594.537 207.775C598.971 201.708 605.096 197.042 612.912 193.775C620.729 190.392 629.829 188.7 640.212 188.7C648.729 188.7 656.779 189.925 664.362 192.375C672.062 194.708 678.304 197.917 683.087 202L674.162 225.45C669.729 222.183 664.596 219.675 658.762 217.925C652.929 216.058 646.629 215.125 639.862 215.125C633.329 215.125 628.312 216.292 624.812 218.625C621.312 220.842 619.562 223.758 619.562 227.375C619.562 229.942 620.612 232.042 622.712 233.675C624.812 235.308 628.546 236.708 633.912 237.875L654.212 242.25C676.729 247.033 687.987 258.35 687.987 276.2C687.987 284.25 685.829 291.25 681.512 297.2C677.196 303.15 671.129 307.758 663.312 311.025C655.496 314.292 646.279 315.925 635.662 315.925ZM752.163 314V216.875H712.963V190.625H823.563V216.875H784.363V314H752.163ZM929.558 314V190.625H988.883C1002.88 190.625 1013.68 194.242 1021.26 201.475C1028.96 208.592 1032.81 218.45 1032.81 231.05C1032.81 243.65 1028.96 253.567 1021.26 260.8C1013.68 267.917 1002.88 271.475 988.883 271.475H961.758V314H929.558ZM961.758 246.8H983.283C995.883 246.8 1002.18 241.55 1002.18 231.05C1002.18 220.55 995.883 215.3 983.283 215.3H961.758V246.8ZM1069.7 314V190.625H1129.02C1143.02 190.625 1153.81 194.067 1161.4 200.95C1169.1 207.717 1172.95 217.167 1172.95 229.3C1172.95 238.517 1170.61 246.275 1165.95 252.575C1161.4 258.758 1154.75 263.075 1146 265.525C1152.53 267.275 1157.78 271.767 1161.75 279L1181 314H1145.65L1124.3 274.8C1122.9 272.35 1121.09 270.6 1118.87 269.55C1116.77 268.5 1114.32 267.975 1111.52 267.975H1101.9V314H1069.7ZM1101.9 245.225H1123.25C1135.96 245.225 1142.32 240.208 1142.32 230.175C1142.32 220.258 1135.96 215.3 1123.25 215.3H1101.9V245.225ZM1215.13 314V190.625H1302.28V215.475H1245.93V238.925H1298.25V263.775H1245.93V289.15H1302.28V314H1215.13ZM1407.14 315.925C1393.49 315.925 1381.77 313.3 1371.97 308.05C1362.17 302.8 1354.64 295.392 1349.39 285.825C1344.26 276.258 1341.69 265.058 1341.69 252.225C1341.69 239.392 1344.26 228.25 1349.39 218.8C1354.64 209.233 1362.17 201.825 1371.97 196.575C1381.77 191.325 1393.49 188.7 1407.14 188.7C1415.31 188.7 1423.18 189.983 1430.77 192.55C1438.35 195 1444.47 198.267 1449.14 202.35L1439.52 227.725C1434.38 223.992 1429.25 221.25 1424.12 219.5C1418.98 217.633 1413.73 216.7 1408.37 216.7C1397.52 216.7 1389.35 219.792 1383.87 225.975C1378.38 232.042 1375.64 240.792 1375.64 252.225C1375.64 263.775 1378.38 272.642 1383.87 278.825C1389.35 284.892 1397.52 287.925 1408.37 287.925C1413.73 287.925 1418.98 287.05 1424.12 285.3C1429.25 283.433 1434.38 280.633 1439.52 276.9L1449.14 302.275C1444.47 306.358 1438.35 309.683 1430.77 312.25C1423.18 314.7 1415.31 315.925 1407.14 315.925ZM1486.86 314V190.625H1519.06V314H1486.86ZM1609.1 315.925C1599.42 315.925 1590.14 314.758 1581.27 312.425C1572.41 309.975 1565.12 306.767 1559.4 302.8L1568.32 277.775C1573.69 281.392 1579.99 284.25 1587.22 286.35C1594.46 288.45 1601.75 289.5 1609.1 289.5C1616.8 289.5 1622.17 288.508 1625.2 286.525C1628.35 284.425 1629.92 281.858 1629.92 278.825C1629.92 276.142 1628.82 273.983 1626.6 272.35C1624.5 270.717 1620.71 269.317 1615.22 268.15L1594.75 263.775C1572.58 258.992 1561.5 247.383 1561.5 228.95C1561.5 220.9 1563.66 213.842 1567.97 207.775C1572.41 201.708 1578.53 197.042 1586.35 193.775C1594.17 190.392 1603.27 188.7 1613.65 188.7C1622.17 188.7 1630.22 189.925 1637.8 192.375C1645.5 194.708 1651.74 197.917 1656.52 202L1647.6 225.45C1643.17 222.183 1638.03 219.675 1632.2 217.925C1626.37 216.058 1620.07 215.125 1613.3 215.125C1606.77 215.125 1601.75 216.292 1598.25 218.625C1594.75 220.842 1593 223.758 1593 227.375C1593 229.942 1594.05 232.042 1596.15 233.675C1598.25 235.308 1601.98 236.708 1607.35 237.875L1627.65 242.25C1650.17 247.033 1661.42 258.35 1661.42 276.2C1661.42 284.25 1659.27 291.25 1654.95 297.2C1650.63 303.15 1644.57 307.758 1636.75 311.025C1628.93 314.292 1619.72 315.925 1609.1 315.925ZM1699.11 314V190.625H1731.31V314H1699.11ZM1835.01 315.925C1822.52 315.925 1811.56 313.3 1802.11 308.05C1792.77 302.683 1785.48 295.217 1780.23 285.65C1774.98 276.083 1772.36 264.942 1772.36 252.225C1772.36 239.392 1774.92 228.25 1780.06 218.8C1785.31 209.233 1792.66 201.825 1802.11 196.575C1811.56 191.325 1822.52 188.7 1835.01 188.7C1847.49 188.7 1858.4 191.325 1867.73 196.575C1877.18 201.825 1884.53 209.233 1889.78 218.8C1895.03 228.25 1897.66 239.392 1897.66 252.225C1897.66 264.942 1895.03 276.083 1889.78 285.65C1884.53 295.217 1877.18 302.683 1867.73 308.05C1858.4 313.3 1847.49 315.925 1835.01 315.925ZM1835.01 288.975C1844.11 288.975 1851.22 285.767 1856.36 279.35C1861.61 272.817 1864.23 263.775 1864.23 252.225C1864.23 240.675 1861.66 231.692 1856.53 225.275C1851.4 218.858 1844.22 215.65 1835.01 215.65C1825.79 215.65 1818.61 218.858 1813.48 225.275C1808.35 231.692 1805.78 240.675 1805.78 252.225C1805.78 263.775 1808.35 272.817 1813.48 279.35C1818.61 285.767 1825.79 288.975 1835.01 288.975ZM1938.54 314V190.625H1962.17L2018.87 261.325V190.625H2048.62V314H2025.17L1968.47 243.3V314H1938.54ZM2164.98 314V190.625H2252.13V215.475H2195.78V238.925H2248.11V263.775H2195.78V289.15H2252.13V314H2164.98ZM2294.35 314V190.625H2317.98L2374.68 261.325V190.625H2404.43V314H2380.98L2324.28 243.3V314H2294.35ZM2511.85 315.925C2497.73 315.925 2485.71 313.3 2475.8 308.05C2466 302.8 2458.53 295.45 2453.4 286C2448.26 276.55 2445.7 265.525 2445.7 252.925C2445.7 239.858 2448.38 228.542 2453.75 218.975C2459.23 209.292 2467.05 201.825 2477.2 196.575C2487.35 191.325 2499.6 188.7 2513.95 188.7C2522.58 188.7 2530.8 189.867 2538.62 192.2C2546.44 194.417 2552.8 197.45 2557.7 201.3L2547.9 226.15C2542.53 222.65 2537.1 220.142 2531.62 218.625C2526.14 216.992 2520.3 216.175 2514.12 216.175C2502.34 216.175 2493.53 219.325 2487.7 225.625C2481.98 231.925 2479.12 241.025 2479.12 252.925C2479.12 264.825 2482.04 273.808 2487.87 279.875C2493.7 285.942 2502.34 288.975 2513.77 288.975C2519.14 288.975 2525.15 288.158 2531.8 286.525V267.1H2507.12V244.525H2558.05V306.475C2551.51 309.508 2544.22 311.842 2536.17 313.475C2528.12 315.108 2520.01 315.925 2511.85 315.925ZM2601.46 314V190.625H2633.66V314H2601.46ZM2677.85 314V190.625H2701.47L2758.17 261.325V190.625H2787.92V314H2764.47L2707.77 243.3V314H2677.85ZM2832.34 314V190.625H2919.49V215.475H2863.14V238.925H2915.47V263.775H2863.14V289.15H2919.49V314H2832.34ZM2961.71 314V190.625H3048.86V215.475H2992.51V238.925H3044.84V263.775H2992.51V289.15H3048.86V314H2961.71ZM3091.08 314V190.625H3150.41C3164.41 190.625 3175.2 194.067 3182.78 200.95C3190.48 207.717 3194.33 217.167 3194.33 229.3C3194.33 238.517 3192 246.275 3187.33 252.575C3182.78 258.758 3176.13 263.075 3167.38 265.525C3173.92 267.275 3179.17 271.767 3183.13 279L3202.38 314H3167.03L3145.68 274.8C3144.28 272.35 3142.47 270.6 3140.26 269.55C3138.16 268.5 3135.71 267.975 3132.91 267.975H3123.28V314H3091.08ZM3123.28 245.225H3144.63C3157.35 245.225 3163.71 240.208 3163.71 230.175C3163.71 220.258 3157.35 215.3 3144.63 215.3H3123.28V245.225ZM3236.52 314V190.625H3323.67V215.475H3267.32V238.925H3319.64V263.775H3267.32V289.15H3323.67V314H3236.52ZM3365.89 314V190.625H3416.99C3438.34 190.625 3454.9 195.992 3466.69 206.725C3478.47 217.458 3484.36 232.625 3484.36 252.225C3484.36 271.825 3478.47 287.05 3466.69 297.9C3454.9 308.633 3438.34 314 3416.99 314H3365.89ZM3398.09 287.925H3414.89C3427.14 287.925 3436.18 285.008 3442.01 279.175C3447.96 273.225 3450.94 264.242 3450.94 252.225C3450.94 240.208 3447.96 231.283 3442.01 225.45C3436.06 219.617 3427.02 216.7 3414.89 216.7H3398.09V287.925ZM3597.28 314V190.625H3656.61C3670.61 190.625 3681.4 194.242 3688.98 201.475C3696.68 208.592 3700.53 218.45 3700.53 231.05C3700.53 243.65 3696.68 253.567 3688.98 260.8C3681.4 267.917 3670.61 271.475 3656.61 271.475H3629.48V314H3597.28ZM3629.48 246.8H3651.01C3663.61 246.8 3669.91 241.55 3669.91 231.05C3669.91 220.55 3663.61 215.3 3651.01 215.3H3629.48V246.8ZM3737.42 314V190.625H3796.74C3810.74 190.625 3821.54 194.067 3829.12 200.95C3836.82 207.717 3840.67 217.167 3840.67 229.3C3840.67 238.517 3838.34 246.275 3833.67 252.575C3829.12 258.758 3822.47 263.075 3813.72 265.525C3820.25 267.275 3825.5 271.767 3829.47 279L3848.72 314H3813.37L3792.02 274.8C3790.62 272.35 3788.81 270.6 3786.59 269.55C3784.49 268.5 3782.04 267.975 3779.24 267.975H3769.62V314H3737.42ZM3769.62 245.225H3790.97C3803.69 245.225 3810.04 240.208 3810.04 230.175C3810.04 220.258 3803.69 215.3 3790.97 215.3H3769.62V245.225ZM3941.5 315.925C3929.02 315.925 3918.05 313.3 3908.6 308.05C3899.27 302.683 3891.97 295.217 3886.72 285.65C3881.47 276.083 3878.85 264.942 3878.85 252.225C3878.85 239.392 3881.42 228.25 3886.55 218.8C3891.8 209.233 3899.15 201.825 3908.6 196.575C3918.05 191.325 3929.02 188.7 3941.5 188.7C3953.98 188.7 3964.89 191.325 3974.22 196.575C3983.67 201.825 3991.02 209.233 3996.27 218.8C4001.52 228.25 4004.15 239.392 4004.15 252.225C4004.15 264.942 4001.52 276.083 3996.27 285.65C3991.02 295.217 3983.67 302.683 3974.22 308.05C3964.89 313.3 3953.98 315.925 3941.5 315.925ZM3941.5 288.975C3950.6 288.975 3957.72 285.767 3962.85 279.35C3968.1 272.817 3970.72 263.775 3970.72 252.225C3970.72 240.675 3968.16 231.692 3963.02 225.275C3957.89 218.858 3950.72 215.65 3941.5 215.65C3932.28 215.65 3925.11 218.858 3919.97 225.275C3914.84 231.692 3912.27 240.675 3912.27 252.225C3912.27 263.775 3914.84 272.817 3919.97 279.35C3925.11 285.767 3932.28 288.975 3941.5 288.975ZM4045.04 314V190.625H4096.14C4117.49 190.625 4134.05 195.992 4145.84 206.725C4157.62 217.458 4163.51 232.625 4163.51 252.225C4163.51 271.825 4157.62 287.05 4145.84 297.9C4134.05 308.633 4117.49 314 4096.14 314H4045.04ZM4077.24 287.925H4094.04C4106.29 287.925 4115.33 285.008 4121.16 279.175C4127.11 273.225 4130.09 264.242 4130.09 252.225C4130.09 240.208 4127.11 231.283 4121.16 225.45C4115.21 219.617 4106.17 216.7 4094.04 216.7H4077.24V287.925ZM4259.09 315.925C4241.12 315.925 4227.35 311.375 4217.79 302.275C4208.34 293.175 4203.61 279.583 4203.61 261.5V190.625H4235.81V261.85C4235.81 270.833 4237.79 277.6 4241.76 282.15C4245.73 286.7 4251.5 288.975 4259.09 288.975C4266.55 288.975 4272.27 286.7 4276.24 282.15C4280.2 277.6 4282.19 270.833 4282.19 261.85V190.625H4313.86V261.5C4313.86 279.583 4309.19 293.175 4299.86 302.275C4290.64 311.375 4277.05 315.925 4259.09 315.925ZM4419.57 315.925C4405.92 315.925 4394.19 313.3 4384.39 308.05C4374.59 302.8 4367.07 295.392 4361.82 285.825C4356.69 276.258 4354.12 265.058 4354.12 252.225C4354.12 239.392 4356.69 228.25 4361.82 218.8C4367.07 209.233 4374.59 201.825 4384.39 196.575C4394.19 191.325 4405.92 188.7 4419.57 188.7C4427.74 188.7 4435.61 189.983 4443.19 192.55C4450.78 195 4456.9 198.267 4461.57 202.35L4451.94 227.725C4446.81 223.992 4441.68 221.25 4436.54 219.5C4431.41 217.633 4426.16 216.7 4420.79 216.7C4409.94 216.7 4401.78 219.792 4396.29 225.975C4390.81 232.042 4388.07 240.792 4388.07 252.225C4388.07 263.775 4390.81 272.642 4396.29 278.825C4401.78 284.892 4409.94 287.925 4420.79 287.925C4426.16 287.925 4431.41 287.05 4436.54 285.3C4441.68 283.433 4446.81 280.633 4451.94 276.9L4461.57 302.275C4456.9 306.358 4450.78 309.683 4443.19 312.25C4435.61 314.7 4427.74 315.925 4419.57 315.925ZM4526.63 314V216.875H4487.43V190.625H4598.03V216.875H4558.83V314H4526.63ZM4674.16 315.925C4664.48 315.925 4655.2 314.758 4646.34 312.425C4637.47 309.975 4630.18 306.767 4624.46 302.8L4633.39 277.775C4638.75 281.392 4645.05 284.25 4652.29 286.35C4659.52 288.45 4666.81 289.5 4674.16 289.5C4681.86 289.5 4687.23 288.508 4690.26 286.525C4693.41 284.425 4694.99 281.858 4694.99 278.825C4694.99 276.142 4693.88 273.983 4691.66 272.35C4689.56 270.717 4685.77 269.317 4680.29 268.15L4659.81 263.775C4637.65 258.992 4626.56 247.383 4626.56 228.95C4626.56 220.9 4628.72 213.842 4633.04 207.775C4637.47 201.708 4643.6 197.042 4651.41 193.775C4659.23 190.392 4668.33 188.7 4678.71 188.7C4687.23 188.7 4695.28 189.925 4702.86 192.375C4710.56 194.708 4716.8 197.917 4721.59 202L4712.66 225.45C4708.23 222.183 4703.1 219.675 4697.26 217.925C4691.43 216.058 4685.13 215.125 4678.36 215.125C4671.83 215.125 4666.81 216.292 4663.31 218.625C4659.81 220.842 4658.06 223.758 4658.06 227.375C4658.06 229.942 4659.11 232.042 4661.21 233.675C4663.31 235.308 4667.05 236.708 4672.41 237.875L4692.71 242.25C4715.23 247.033 4726.49 258.35 4726.49 276.2C4726.49 284.25 4724.33 291.25 4720.01 297.2C4715.7 303.15 4709.63 307.758 4701.81 311.025C4694 314.292 4684.78 315.925 4674.16 315.925Z" fill="white"/>
<path d="M444.517 713V621.35H479.097C488.89 621.35 496.343 623.69 501.457 628.37C506.657 633.05 509.257 639.723 509.257 648.39C509.257 656.97 506.657 663.643 501.457 668.41C496.343 673.09 488.89 675.43 479.097 675.43H452.447V713H444.517ZM452.447 668.41H478.447C493.613 668.41 501.197 661.737 501.197 648.39C501.197 634.957 493.613 628.24 478.447 628.24H452.447V668.41ZM558.79 713V621.35H593.37C603.163 621.35 610.617 623.603 615.73 628.11C620.93 632.617 623.53 639.03 623.53 647.35C623.53 654.197 621.667 659.743 617.94 663.99C614.213 668.237 608.927 670.967 602.08 672.18C605.807 673.567 609.1 676.947 611.96 682.32L628.6 713H619.89L604.03 683.62C601.777 679.547 599.263 676.817 596.49 675.43C593.717 674.043 589.99 673.35 585.31 673.35H566.72V713H558.79ZM566.72 666.59H592.33C607.757 666.59 615.47 660.177 615.47 647.35C615.47 634.61 607.757 628.24 592.33 628.24H566.72V666.59ZM677.887 713V621.35H734.307V628.24H685.687V663.08H731.577V669.97H685.687V706.11H734.307V713H677.887ZM823.652 714.04C814.898 714.04 807.402 712.177 801.162 708.45C794.922 704.637 790.112 699.22 786.732 692.2C783.438 685.18 781.792 676.817 781.792 667.11C781.792 657.49 783.438 649.17 786.732 642.15C790.112 635.13 794.922 629.757 801.162 626.03C807.402 622.217 814.898 620.31 823.652 620.31C829.978 620.31 835.785 621.35 841.072 623.43C846.445 625.423 850.995 628.37 854.722 632.27L851.212 638.9C847.138 634.913 842.892 632.053 838.472 630.32C834.138 628.587 829.242 627.72 823.782 627.72C813.035 627.72 804.758 631.187 798.952 638.12C793.232 644.967 790.372 654.63 790.372 667.11C790.372 679.677 793.232 689.427 798.952 696.36C804.758 703.207 813.035 706.63 823.782 706.63C829.242 706.63 834.138 705.763 838.472 704.03C842.892 702.297 847.138 699.437 851.212 695.45L854.722 702.08C850.995 705.98 846.445 708.97 841.072 711.05C835.785 713.043 829.978 714.04 823.652 714.04ZM905.671 713V621.35H913.601V713H905.671ZM999.287 714.04C992.18 714.04 985.767 713.13 980.047 711.31C974.413 709.403 969.517 706.63 965.357 702.99L968.477 696.36C972.983 699.913 977.577 702.557 982.257 704.29C987.023 705.937 992.7 706.76 999.287 706.76C1007.52 706.76 1013.67 705.157 1017.75 701.95C1021.91 698.743 1023.99 694.54 1023.99 689.34C1023.99 685.007 1022.47 681.627 1019.44 679.2C1016.49 676.773 1011.59 674.867 1004.75 673.48L991.617 670.75C983.47 669.103 977.36 666.33 973.287 662.43C969.3 658.53 967.307 653.33 967.307 646.83C967.307 641.543 968.65 636.907 971.337 632.92C974.11 628.933 977.923 625.857 982.777 623.69C987.63 621.437 993.22 620.31 999.547 620.31C1012.2 620.31 1022.3 624.123 1029.84 631.75L1026.72 638.25C1022.73 634.523 1018.57 631.837 1014.24 630.19C1009.9 628.457 1005.01 627.59 999.547 627.59C992.267 627.59 986.417 629.323 981.997 632.79C977.663 636.257 975.497 640.893 975.497 646.7C975.497 651.293 976.883 654.933 979.657 657.62C982.43 660.22 986.893 662.127 993.047 663.34L1006.31 666.07C1015.06 667.89 1021.56 670.62 1025.81 674.26C1030.05 677.813 1032.18 682.71 1032.18 688.95C1032.18 693.89 1030.83 698.267 1028.15 702.08C1025.55 705.807 1021.78 708.753 1016.84 710.92C1011.9 713 1006.05 714.04 999.287 714.04ZM1082.8 713V621.35H1090.73V713H1082.8ZM1185.13 714.04C1176.72 714.04 1169.44 712.133 1163.29 708.32C1157.22 704.507 1152.5 699.09 1149.12 692.07C1145.82 685.05 1144.18 676.73 1144.18 667.11C1144.18 657.49 1145.82 649.17 1149.12 642.15C1152.41 635.13 1157.13 629.757 1163.29 626.03C1169.44 622.217 1176.72 620.31 1185.13 620.31C1193.62 620.31 1200.9 622.217 1206.97 626.03C1213.12 629.757 1217.84 635.13 1221.14 642.15C1224.52 649.083 1226.21 657.36 1226.21 666.98C1226.21 676.687 1224.52 685.05 1221.14 692.07C1217.84 699.09 1213.12 704.507 1206.97 708.32C1200.81 712.133 1193.53 714.04 1185.13 714.04ZM1185.13 706.76C1195.44 706.76 1203.46 703.293 1209.18 696.36C1214.9 689.427 1217.76 679.677 1217.76 667.11C1217.76 654.543 1214.9 644.837 1209.18 637.99C1203.54 631.057 1195.53 627.59 1185.13 627.59C1174.81 627.59 1166.8 631.057 1161.08 637.99C1155.44 644.923 1152.63 654.63 1152.63 667.11C1152.63 679.59 1155.44 689.34 1161.08 696.36C1166.8 703.293 1174.81 706.76 1185.13 706.76ZM1279.61 713V621.35H1285.98L1343.96 699.48V621.35H1351.37V713H1345.13L1287.02 634.74V713H1279.61ZM1465.81 713L1505.72 621.35H1512.87L1552.65 713H1544.33L1533.8 688.56H1484.66L1474.26 713H1465.81ZM1509.1 631.23L1487.65 681.67H1530.81L1509.36 631.23H1509.1ZM1601.23 713V621.35H1656.35V628.24H1609.16V663.21H1653.75V670.1H1609.16V713H1601.23ZM1727.2 713V628.5H1693.01V621.35H1769.45V628.5H1735.26V713H1727.2ZM1814.92 713V621.35H1871.34V628.24H1822.72V663.08H1868.61V669.97H1822.72V706.11H1871.34V713H1814.92ZM1922.97 713V621.35H1957.55C1967.35 621.35 1974.8 623.603 1979.91 628.11C1985.11 632.617 1987.71 639.03 1987.71 647.35C1987.71 654.197 1985.85 659.743 1982.12 663.99C1978.4 668.237 1973.11 670.967 1966.26 672.18C1969.99 673.567 1973.28 676.947 1976.14 682.32L1992.78 713H1984.07L1968.21 683.62C1965.96 679.547 1963.45 676.817 1960.67 675.43C1957.9 674.043 1954.17 673.35 1949.49 673.35H1930.9V713H1922.97ZM1930.9 666.59H1956.51C1971.94 666.59 1979.65 660.177 1979.65 647.35C1979.65 634.61 1971.94 628.24 1956.51 628.24H1930.9V666.59ZM2042.33 713V621.35H2049.09L2085.49 690.38L2121.63 621.35H2128.39V713H2120.98V636.82L2088.35 698.83H2082.63L2049.61 636.95V713H2042.33ZM2177.09 713L2217 621.35H2224.15L2263.93 713H2255.61L2245.08 688.56H2195.94L2185.54 713H2177.09ZM2220.38 631.23L2198.93 681.67H2242.09L2220.64 631.23H2220.38ZM2312.51 713V621.35H2347.09C2356.88 621.35 2364.34 623.603 2369.45 628.11C2374.65 632.617 2377.25 639.03 2377.25 647.35C2377.25 654.197 2375.39 659.743 2371.66 663.99C2367.93 668.237 2362.65 670.967 2355.8 672.18C2359.53 673.567 2362.82 676.947 2365.68 682.32L2382.32 713H2373.61L2357.75 683.62C2355.5 679.547 2352.98 676.817 2350.21 675.43C2347.44 674.043 2343.71 673.35 2339.03 673.35H2320.44V713H2312.51ZM2320.44 666.59H2346.05C2361.48 666.59 2369.19 660.177 2369.19 647.35C2369.19 634.61 2361.48 628.24 2346.05 628.24H2320.44V666.59ZM2431.61 713V621.35H2439.54V663.47H2439.8L2486.08 621.35H2496.61L2447.34 666.07L2499.73 713H2488.81L2439.8 669.45H2439.54V713H2431.61ZM2543.72 713V621.35H2600.14V628.24H2551.52V663.08H2597.41V669.97H2551.52V706.11H2600.14V713H2543.72ZM2672.24 713V628.5H2638.05V621.35H2714.49V628.5H2680.3V713H2672.24ZM2825.99 713V621.35H2832.75L2869.15 690.38L2905.29 621.35H2912.05V713H2904.64V636.82L2872.01 698.83H2866.29L2833.27 636.95V713H2825.99ZM3006.51 714.04C2998.11 714.04 2990.83 712.133 2984.67 708.32C2978.61 704.507 2973.88 699.09 2970.5 692.07C2967.21 685.05 2965.56 676.73 2965.56 667.11C2965.56 657.49 2967.21 649.17 2970.5 642.15C2973.8 635.13 2978.52 629.757 2984.67 626.03C2990.83 622.217 2998.11 620.31 3006.51 620.31C3015.01 620.31 3022.29 622.217 3028.35 626.03C3034.51 629.757 3039.23 635.13 3042.52 642.15C3045.9 649.083 3047.59 657.36 3047.59 666.98C3047.59 676.687 3045.9 685.05 3042.52 692.07C3039.23 699.09 3034.51 704.507 3028.35 708.32C3022.2 712.133 3014.92 714.04 3006.51 714.04ZM3006.51 706.76C3016.83 706.76 3024.84 703.293 3030.56 696.36C3036.28 689.427 3039.14 679.677 3039.14 667.11C3039.14 654.543 3036.28 644.837 3030.56 637.99C3024.93 631.057 3016.91 627.59 3006.51 627.59C2996.2 627.59 2988.18 631.057 2982.46 637.99C2976.83 644.923 2974.01 654.63 2974.01 667.11C2974.01 679.59 2976.83 689.34 2982.46 696.36C2988.18 703.293 2996.2 706.76 3006.51 706.76ZM3117.78 713V628.5H3083.59V621.35H3160.03V628.5H3125.84V713H3117.78ZM3236.96 714.04C3228.56 714.04 3221.28 712.133 3215.12 708.32C3209.06 704.507 3204.33 699.09 3200.95 692.07C3197.66 685.05 3196.01 676.73 3196.01 667.11C3196.01 657.49 3197.66 649.17 3200.95 642.15C3204.25 635.13 3208.97 629.757 3215.12 626.03C3221.28 622.217 3228.56 620.31 3236.96 620.31C3245.46 620.31 3252.74 622.217 3258.8 626.03C3264.96 629.757 3269.68 635.13 3272.97 642.15C3276.35 649.083 3278.04 657.36 3278.04 666.98C3278.04 676.687 3276.35 685.05 3272.97 692.07C3269.68 699.09 3264.96 704.507 3258.8 708.32C3252.65 712.133 3245.37 714.04 3236.96 714.04ZM3236.96 706.76C3247.28 706.76 3255.29 703.293 3261.01 696.36C3266.73 689.427 3269.59 679.677 3269.59 667.11C3269.59 654.543 3266.73 644.837 3261.01 637.99C3255.38 631.057 3247.36 627.59 3236.96 627.59C3226.65 627.59 3218.63 631.057 3212.91 637.99C3207.28 644.923 3204.46 654.63 3204.46 667.11C3204.46 679.59 3207.28 689.34 3212.91 696.36C3218.63 703.293 3226.65 706.76 3236.96 706.76ZM3331.45 713V621.35H3366.03C3375.82 621.35 3383.27 623.603 3388.39 628.11C3393.59 632.617 3396.19 639.03 3396.19 647.35C3396.19 654.197 3394.32 659.743 3390.6 663.99C3386.87 668.237 3381.58 670.967 3374.74 672.18C3378.46 673.567 3381.76 676.947 3384.62 682.32L3401.26 713H3392.55L3376.69 683.62C3374.43 679.547 3371.92 676.817 3369.15 675.43C3366.37 674.043 3362.65 673.35 3357.97 673.35H3339.38V713H3331.45ZM3339.38 666.59H3364.99C3380.41 666.59 3388.13 660.177 3388.13 647.35C3388.13 634.61 3380.41 628.24 3364.99 628.24H3339.38V666.59ZM3450.54 713V621.35H3485.51C3494.87 621.35 3502.11 623.43 3507.22 627.59C3512.42 631.75 3515.02 637.687 3515.02 645.4C3515.02 650.427 3513.68 654.717 3510.99 658.27C3508.31 661.823 3504.67 664.423 3500.07 666.07C3505.36 667.37 3509.52 669.927 3512.55 673.74C3515.59 677.467 3517.1 682.233 3517.1 688.04C3517.1 696.187 3514.5 702.383 3509.3 706.63C3504.1 710.877 3496.74 713 3487.2 713H3450.54ZM3458.34 663.21H3484.6C3491.88 663.21 3497.43 661.737 3501.24 658.79C3505.06 655.757 3506.96 651.38 3506.96 645.66C3506.96 639.94 3505.06 635.607 3501.24 632.66C3497.43 629.627 3491.88 628.11 3484.6 628.11H3458.34V663.21ZM3458.34 706.24H3486.55C3501.55 706.24 3509.04 700.217 3509.04 688.17C3509.04 681.93 3507.18 677.337 3503.45 674.39C3499.73 671.443 3494.09 669.97 3486.55 669.97H3458.34V706.24ZM3570.91 713V621.35H3578.84V713H3570.91ZM3635.93 713V621.35H3643.86V663.47H3644.12L3690.4 621.35H3700.93L3651.66 666.07L3704.05 713H3693.13L3644.12 669.45H3643.86V713H3635.93ZM3748.04 713V621.35H3804.46V628.24H3755.84V663.08H3801.73V669.97H3755.84V706.11H3804.46V713H3748.04ZM3921.87 713V621.35H3956.45C3966.24 621.35 3973.7 623.69 3978.81 628.37C3984.01 633.05 3986.61 639.723 3986.61 648.39C3986.61 656.97 3984.01 663.643 3978.81 668.41C3973.7 673.09 3966.24 675.43 3956.45 675.43H3929.8V713H3921.87ZM3929.8 668.41H3955.8C3970.97 668.41 3978.55 661.737 3978.55 648.39C3978.55 634.957 3970.97 628.24 3955.8 628.24H3929.8V668.41ZM4018.43 713L4058.34 621.35H4065.49L4105.27 713H4096.95L4086.42 688.56H4037.28L4026.88 713H4018.43ZM4061.72 631.23L4040.27 681.67H4083.43L4061.98 631.23H4061.72ZM4153.84 713V621.35H4188.42C4198.22 621.35 4205.67 623.603 4210.78 628.11C4215.98 632.617 4218.58 639.03 4218.58 647.35C4218.58 654.197 4216.72 659.743 4212.99 663.99C4209.27 668.237 4203.98 670.967 4197.13 672.18C4200.86 673.567 4204.15 676.947 4207.01 682.32L4223.65 713H4214.94L4199.08 683.62C4196.83 679.547 4194.32 676.817 4191.54 675.43C4188.77 674.043 4185.04 673.35 4180.36 673.35H4161.77V713H4153.84ZM4161.77 666.59H4187.38C4202.81 666.59 4210.52 660.177 4210.52 647.35C4210.52 634.61 4202.81 628.24 4187.38 628.24H4161.77V666.59ZM4293.02 713V628.5H4258.83V621.35H4335.27V628.5H4301.08V713H4293.02ZM4406.04 714.04C4398.93 714.04 4392.52 713.13 4386.8 711.31C4381.17 709.403 4376.27 706.63 4372.11 702.99L4375.23 696.36C4379.74 699.913 4384.33 702.557 4389.01 704.29C4393.78 705.937 4399.45 706.76 4406.04 706.76C4414.27 706.76 4420.43 705.157 4424.5 701.95C4428.66 698.743 4430.74 694.54 4430.74 689.34C4430.74 685.007 4429.22 681.627 4426.19 679.2C4423.24 676.773 4418.35 674.867 4411.5 673.48L4398.37 670.75C4390.22 669.103 4384.11 666.33 4380.04 662.43C4376.05 658.53 4374.06 653.33 4374.06 646.83C4374.06 641.543 4375.4 636.907 4378.09 632.92C4380.86 628.933 4384.68 625.857 4389.53 623.69C4394.38 621.437 4399.97 620.31 4406.3 620.31C4418.95 620.31 4429.05 624.123 4436.59 631.75L4433.47 638.25C4429.48 634.523 4425.32 631.837 4420.99 630.19C4416.66 628.457 4411.76 627.59 4406.3 627.59C4399.02 627.59 4393.17 629.323 4388.75 632.79C4384.42 636.257 4382.25 640.893 4382.25 646.7C4382.25 651.293 4383.64 654.933 4386.41 657.62C4389.18 660.22 4393.65 662.127 4399.8 663.34L4413.06 666.07C4421.81 667.89 4428.31 670.62 4432.56 674.26C4436.81 677.813 4438.93 682.71 4438.93 688.95C4438.93 693.89 4437.59 698.267 4434.9 702.08C4432.3 705.807 4428.53 708.753 4423.59 710.92C4418.65 713 4412.8 714.04 4406.04 714.04Z" fill="#050A12"/>
</svg>
